<?xml version="1.0" encoding="utf-8"?>
<!-- Generator: Adobe Illustrator 22.1.0, SVG Export Plug-In . SVG Version: 6.00 Build 0)  -->
<svg version="1.1" id="_x31__1_" xmlns="http://www.w3.org/2000/svg" xmlns:xlink="http://www.w3.org/1999/xlink" x="0px" y="0px"
	 viewBox="0 0 850 815" style="enable-background:new 0 0 850 815;" xml:space="preserve">
<style type="text/css">
	.st0{fill:#D4E0E8;}
	.st1{fill:#FFC5C5;}
	.st2{fill:#EF806F;}
	.st3{fill:#CCB696;}
	.st4{fill:#FFAE45;}
	.st5{fill:#4D251D;}
	.st6{fill:#998F8D;}
	.st7{fill:#F18E5B;}
	.st8{fill:#FFFFFF;}
	.st9{fill:#E7EEF2;}
	.st10{fill:#B29977;}
	.st11{fill:#359FDA;}
	.st12{fill:#EC6C48;}
	.st13{fill:#F8D074;}
</style>
<g>
	<path class="st0" d="M798.06,305.217c0,26.03-21.823,71.385-68.861,101.622c-40.308,89.004-142.745,167.935-142.745,167.935
		s-10.913,54.561-7.547,84.798c-19.797,6.037-64.185,9.848-116.395,11.308c-32.522,0.911-70.015-15.776-104.567-16.705
		c-40.607-1.092-77.89,13.218-109.145,9.53c-29.841-3.514-52.432-8.241-62.033-14.204c-18.457-14.275-3.365-79.773-3.365-79.773
		s-3.339-2.523-18.458-14.277c-15.118-11.753-49.537-51.219-66.338-109.986C81.806,386.673,76.782,316.995,69.21,311.105
		c-7.547-5.888-30.212-36.101-35.261-68.02c-5.046-31.895,13.435-57.084,33.578-51.219c20.166,5.889,23.531,30.236,23.531,30.236
		s15.094-14.277,31.055-2.523c6.58,4.85,7.595,9.699,5.986,15.069c-1.879,6.234-7.3,13.188-11.628,21.7
		c-0.99,1.931-1.93,3.959-2.748,6.061c-7.571,19.301,24.349,108.305,38.625,129.311c14.278,20.983,7.547,22.666,15.961-8.414
		c8.387-31.053,54.559-55.4,54.559-55.4s-24.349-7.572-35.259-15.96c-10.913-8.389,5.046-22.666,5.046-22.666
		s-29.394,0.841-41.147-8.412c-7.819-6.138-13.411-15.986-9.38-24.1c0.224-0.445,0.471-0.867,0.743-1.288
		c2.301-3.588,6.632-6.779,13.683-9.032c23.509-7.545,51.22-24.347,72.203-32.759c20.983-8.389,49.538-23.507,69.702-3.341
		c20.142,20.142,30.212,65.496,32.738,65.496c2.523,0,138.539,20.142,138.539,20.142s7.571-5.023,9.255-19.3
		c1.681-14.278,32.736-35.286,41.965-41.149c9.252-5.889,36.127-12.594,56.266,11.753c20.143,24.349,66.339,81.457,74.726,92.369
		c8.412,10.911,11.753,15.958,0.84,29.371c-1.187,1.46-2.299,2.647-3.388,3.638c-9.033,8.189-15.415,1.534-25.163-4.454
		c-10.913-6.73-10.913,2.499-10.913,2.499s10.07,15.959,5.046,26.03c-5.046,10.095-22.663,11.753-34.416,2.523
		c-11.781-9.228-21.008-15.119-15.961-6.706c5.023,8.389,11.753,58.768-3.363,88.162c18.457-4.131,37.906-16.9,56.217-32.984
		c45.01-39.465,83.162-98.849,83.162-98.849s-5.864-12.596-10.07-21.825c-4.206-9.255-0.84-26.871,10.07-32.76
		c10.913-5.864,15.959,10.912,15.959,10.912s2.525-3.341,7.549-15.935c5.046-12.594,26.871-42.832,47.037-35.284
		c1.039,0.395,2.004,0.791,2.944,1.237C795.043,263.399,798.06,280.521,798.06,305.217z"/>
	<path class="st1" d="M448.244,449.001c-23.215-14.913-5.218-44.349,28.377-34.995c33.901,9.44,39.925,34.523,23.717,45.072
		C491.792,464.638,472.362,464.495,448.244,449.001z"/>
	<path class="st2" d="M463.984,446.267c0.621-2.322,0.136-7.784-0.547-10.623c-0.535-2.87-2.318-8.056-3.832-9.922
		c-0.299-0.402-1.233-1.548-1.935-1.074c-0.804,0.265-0.54,1.66-0.471,2.127c0.432,2.214,1.974,7.001,2.473,9.671
		c0.633,2.642,1.178,7.642,1.686,9.838c0.125,0.455,0.455,1.836,1.298,1.75C463.487,448.183,463.876,446.755,463.984,446.267z"/>
	<path class="st2" d="M481.201,450.326c0.382-1.409,0.624-3.806,0.612-6.297c0-2.491-0.266-5.066-0.526-6.848
		c-0.269-1.781-0.76-4.323-1.483-6.707c-0.715-2.387-1.639-4.611-2.415-5.849c-0.316-0.525-1.326-2.031-2.035-1.563
		c-0.829,0.2-0.505,1.918-0.419,2.495c0.535,2.734,2.136,8.818,2.545,12.189c0.585,3.344,0.821,9.632,1.101,12.403
		c0.086,0.577,0.274,2.315,1.125,2.266C480.522,452.655,481.051,450.92,481.201,450.326z"/>
	<path class="st2" d="M494.487,447.002c0.626-0.705,1.303-2.105,1.699-3.65c0.413-1.543,0.524-3.205,0.507-4.355
		c-0.025-1.152-0.197-2.807-0.663-4.335c-0.454-1.529-1.178-2.904-1.832-3.587c-0.263-0.3-1.126-1.091-1.794-0.576
		c-0.759,0.367-0.591,1.388-0.566,1.727c0.089,0.813,0.413,2.027,0.638,3.305c0.233,1.272,0.344,2.603,0.366,3.535
		c0.011,0.933-0.053,2.268-0.238,3.547c-0.178,1.284-0.458,2.509-0.518,3.326c-0.011,0.338-0.145,1.364,0.629,1.703
		C493.4,448.133,494.232,447.312,494.487,447.002z"/>
	<path class="st1" d="M277.657,415.597c22.691-11.636,8.778-40.325-22.962-34.733c-32.029,5.642-39.819,28.174-25.857,39.33
		C236.199,426.075,254.084,427.686,277.657,415.597z"/>
	<path class="st2" d="M263.425,411.67c-0.363-2.192,0.574-7.171,1.456-9.72c0.749-2.592,2.853-7.203,4.414-8.783
		c0.311-0.342,1.272-1.313,1.875-0.813c0.718,0.315,0.349,1.573,0.244,1.997c-0.596,1.996-2.443,6.264-3.142,8.673
		c-0.818,2.375-1.769,6.924-2.432,8.899c-0.158,0.406-0.582,1.648-1.35,1.493C263.708,413.477,263.481,412.129,263.425,411.67z"/>
	<path class="st2" d="M247.222,413.859c-0.224-1.329-0.23-3.556,0.003-5.846c0.222-2.293,0.699-4.636,1.098-6.252
		c0.407-1.615,1.087-3.908,1.968-6.038c0.868-2.13,1.919-4.092,2.742-5.162c0.338-0.455,1.403-1.75,2.013-1.256
		c0.745,0.259,0.294,1.811,0.163,2.333c-0.737,2.466-2.756,7.919-3.435,10.983c-0.84,3.023-1.619,8.785-2.127,11.309
		c-0.13,0.522-0.46,2.104-1.236,1.984C247.638,416.062,247.308,414.419,247.222,413.859z"/>
	<path class="st2" d="M235.303,409.611c-0.516-0.705-1.012-2.054-1.237-3.51c-0.241-1.455-0.194-2.994-0.076-4.05
		c0.125-1.057,0.43-2.565,0.995-3.928c0.555-1.367,1.345-2.566,2.008-3.135c0.272-0.253,1.131-0.903,1.703-0.369
		c0.665,0.406,0.418,1.329,0.366,1.639c-0.155,0.74-0.563,1.829-0.882,2.982c-0.33,1.151-0.552,2.364-0.657,3.219
		c-0.095,0.858-0.155,2.09-0.098,3.285c0.047,1.197,0.197,2.348,0.18,3.105c-0.022,0.312,0.009,1.267-0.732,1.511
		C236.199,410.75,235.508,409.919,235.303,409.611z"/>
	<path class="st3" d="M373.432,278.006l15.74-30.047c0,0-14.309-48.646,21.459-71.539c35.769-22.891,68.68-14.307,84.416-2.861
		c15.74,11.447,22.738,52.483,24.324,57.231c1.586,4.748-22.893,17.169-31.477,35.769c-8.584,18.601-18.158,29.428-18.158,29.428
		L373.432,278.006z"/>
	<path class="st4" d="M406.34,217.913c15.739-5.723,20.032-14.307,11.445-22.891c-8.584-8.586-40.061-30.046-72.968-32.909
		c-32.908-2.861-37.199,10.016-22.893,11.446C336.233,174.99,406.34,217.913,406.34,217.913z"/>
	<path class="st5" d="M397.398,366.366c3.607-24.415-1.198-50.201-18.493-53.02c-17.293-2.818-34.921,19.309-44.136,42.811
		c-9.679,24.681-2.736,42.649,18.518,47.457l-0.036,0.124c0.483,0.079,0.943,0.103,1.419,0.167c0.469,0.09,0.904,0.212,1.387,0.291
		l0.03-0.126C378.031,406.304,393.608,392.007,397.398,366.366z"/>
	<path class="st6" d="M359.882,342.87c-1.267,0.653-3.083,2.23-4.705,4.144c-1.636,1.9-3.033,4.124-3.912,5.717
		c-0.871,1.6-1.983,3.974-2.693,6.362c-0.726,2.383-1.062,4.74-0.912,6.134c0.044,0.594,0.319,2.293,1.522,2.123
		c1.176,0.099,1.883-1.419,2.151-1.901c0.607-1.181,1.281-3.101,2.09-5.044c0.796-1.947,1.747-3.901,2.47-5.238
		c0.736-1.331,1.869-3.19,3.083-4.917c1.201-1.737,2.457-3.35,3.125-4.501c0.263-0.483,1.156-1.902,0.424-2.809
		C362.006,341.863,360.412,342.579,359.882,342.87z"/>
	<path class="st6" d="M340.962,386.387l-0.172,0.326l-0.51,1.003l1.423,1.163c0.748,0.616,2.104,0.887,3.46,0.519
		c1.356-0.355,2.709-1.222,3.779-2.602c1.17-1.428,1.785-3.657,1.395-5.321c-0.325-1.727-1.514-2.867-2.617-3.371
		c-1.048-0.495-2.415-0.722-4.048-0.244c-1.619,0.416-3.657,2.118-4.222,4.392c-0.582,2.327,0.28,4.016,1.159,4.904
		c0.918,0.932,2.06,1.31,3.034,1.224c0.421-0.033,1.225-0.209,1.738-0.749c0.539-0.504,0.712-1.184,0.433-1.686
		c-0.453-1.019-1.198-1.285-1.14-1.576c-0.082-0.222-0.232-0.505-0.319-0.823l-0.025-0.392l-0.327-0.01l0.172,0.089l-0.017,0.005
		l0.158,0.289l0.059-0.006l0.563,0.074l0.059,0.126l-0.663,0.776l-0.618,0.453l0.909,2.164l-0.02-0.347
		c-0.055-0.507-0.227-2.02-1.42-2.02C342.046,384.505,341.231,385.914,340.962,386.387z"/>
	<path class="st7" d="M334.846,426.33c-0.723,8.673-7.951,71.556,2.168,77.338c10.12,5.782,31.804-68.665,33.249-70.834
		c1.444-2.168-5.06-15.178-15.179-16.624C344.966,414.766,334.846,426.33,334.846,426.33z"/>
	<path class="st8" d="M468.847,564.307c-4.924,6.211-5.171,15.021-3.316,22.716c1.83,7.72,5.493,14.87,7.719,22.467
		c6.039,20.586,0.916,43.302-10.738,61.388c-70.741,1.979-155.859-0.346-213.711-7.175c-1.807-6.384-2.698-13.016-2.573-19.747
		c0.518-27.736,17.22-55.622,8.24-81.876c-3.563-10.418-13.586-45.33-13.586-48.696c0-0.397,0.125-0.347,0.446,0.248
		c1.78,3.315,21.13,14.573,32.242,18.531c38.696,13.833,99.097,17.247,140.197,16.727c11.752-0.148,23.48-0.915,35.136-2.276
		c3.66-0.421,31.127-7.077,32.586-5.419c3.191,3.687,1.411,9.626-1.88,13.239C476.344,558.049,471.888,560.499,468.847,564.307z"/>
	<path class="st9" d="M649.401,372.668c-23.134-29.371-81.333-103.38-85.738-110.703c-5.493-9.155-31.128-16.48-45.75,0
		c-14.647,16.455-34.765,53.075-40.257,53.075c-5.493,0-164.695-21.973-175.681-25.635c-10.962-3.662,9.155-18.285,9.155-27.44
		c0-9.155-18.285-42.089-36.598-42.089c-18.31,0-96.995,38.426-113.448,42.089c-6.088,1.36-13.188-1.535-18.213-6.484
		c2.301-3.588,6.632-6.779,13.683-9.032c23.509-7.545,51.22-24.347,72.203-32.759c20.983-8.389,49.538-23.507,69.702-3.341
		c20.142,20.142,30.212,65.496,32.738,65.496c2.523,0,138.539,20.142,138.539,20.142s7.571-5.023,9.255-19.3
		c1.681-14.278,32.736-35.286,41.965-41.149c9.252-5.889,36.127-12.594,56.266,11.753c20.143,24.349,66.339,81.457,74.726,92.369
		c8.412,10.911,11.753,15.958,0.84,29.371C651.602,370.491,650.49,371.677,649.401,372.668z"/>
	<path class="st9" d="M777.498,255.234c-18.113,20.736-36.473,60.474-52.803,89.078c-21.973,38.426-93.333,118.943-107.983,122.605
		c-4.799,1.213-1.905-7.249,4.134-19.177c45.01-39.465,83.162-98.849,83.162-98.849s-5.864-12.596-10.07-21.825
		c-4.206-9.255-0.84-26.871,10.07-32.76c10.913-5.864,15.959,10.912,15.959,10.912s2.525-3.341,7.549-15.935
		c5.046-12.594,26.871-42.832,47.037-35.284C775.594,254.392,776.559,254.789,777.498,255.234z"/>
	<path class="st10" d="M436.743,256.758c0.879-0.971,1.822-2.881,2.435-4.983c0.633-2.1,0.904-4.366,0.985-5.947
		c0.072-1.58,0.016-3.863-0.411-6.014c-0.41-2.15-1.168-4.141-1.949-5.193c-0.316-0.453-1.35-1.7-2.457-1.114
		c-1.2,0.362-1.216,1.824-1.258,2.302c-0.061,1.158,0.161,2.917,0.28,4.737c0.133,1.819,0.142,3.697,0.086,5.009
		c-0.069,1.311-0.257,3.18-0.563,4.977c-0.294,1.801-0.682,3.531-0.729,4.689c-0.005,0.479-0.131,1.938,1.028,2.412
		C435.234,258.322,436.385,257.181,436.743,256.758z"/>
	<path class="st10" d="M464.724,267.061c1.181-1.311,2.57-3.9,3.443-6.786c0.904-2.882,1.245-6.012,1.298-8.189
		c0.033-2.176-0.177-5.317-0.963-8.232c-0.757-2.921-2.041-5.564-3.169-6.922c-0.452-0.592-1.957-2.174-2.928-1.375
		c-1.15,0.516-0.679,2.423-0.587,3.061c0.283,1.531,0.959,3.896,1.378,6.4c0.438,2.501,0.579,5.124,0.552,6.954
		c-0.047,1.829-0.294,4.444-0.835,6.924c-0.518,2.486-1.289,4.822-1.635,6.34c-0.117,0.633-0.665,2.52,0.462,3.081
		C462.678,269.154,464.246,267.634,464.724,267.061z"/>
	<path class="st10" d="M490.467,244.243c0.329-1.154,0.313-3.083-0.028-5.038c-0.324-1.959-0.984-3.917-1.528-5.245
		c-0.546-1.326-1.452-3.183-2.598-4.806c-1.134-1.629-2.478-3.013-3.521-3.602c-0.435-0.261-1.764-0.927-2.585,0.015
		c-0.976,0.785-0.527,2.062-0.404,2.49c0.71,1.997,2.983,5.801,3.82,8.074c1.001,2.206,2.058,6.509,2.955,8.429
		c0.216,0.39,0.793,1.614,2.038,1.486C489.865,246.14,490.342,244.733,490.467,244.243z"/>
	<path class="st10" d="M508.671,207.635c-0.612-0.814-1.971-1.7-3.512-2.309c-1.538-0.623-3.241-0.943-4.431-1.072
		c-1.189-0.122-2.919-0.165-4.555,0.123c-1.636,0.273-3.147,0.857-3.918,1.525c-0.338,0.27-1.237,1.153-0.698,2.28
		c0.374,1.193,1.455,1.371,1.799,1.46c1.666,0.286,4.96,0.026,6.773,0.295c1.83,0.115,4.993,1.057,6.685,1.126
		c0.355-0.015,1.447,0.037,2.065-1.05C509.639,209.021,508.946,207.971,508.671,207.635z"/>
	<path class="st10" d="M495.984,183.35c-1.661-0.166-4.755,1.144-6.399,1.883c-1.641,0.739-4.675,2.186-5.651,3.539
		c-0.205,0.283-0.806,1.136-0.227,2.24c0.441,1.168,1.481,1.281,1.827,1.316c1.661,0.168,4.755-1.144,6.397-1.883
		c1.644-0.739,4.677-2.186,5.652-3.539c0.203-0.283,0.807-1.136,0.228-2.24C497.368,183.498,496.331,183.385,495.984,183.35z"/>
	<path class="st10" d="M472.692,171.451c-0.989-0.044-2.492,0.5-3.812,1.428c-1.333,0.917-2.434,2.193-3.094,3.146
		c-0.655,0.955-1.456,2.44-1.836,4.013c-0.399,1.564-0.372,3.161,0.022,4.071c0.145,0.397,0.729,1.467,1.96,1.264
		c1.251-0.043,1.742-0.88,1.936-1.12c0.776-1.246,1.683-3.765,2.625-4.987c0.804-1.314,2.836-3.059,3.724-4.228
		c0.155-0.266,0.762-1.023,0.357-2.207C474.323,171.609,473.116,171.445,472.692,171.451z"/>
	<path class="st10" d="M452.344,191.505c0.701-1.969,0.471-6.416,0.308-8.799c-0.164-2.381-0.544-6.818-1.506-8.673
		c-0.2-0.388-0.81-1.541-2.046-1.357c-1.251-0.014-1.697,1.211-1.845,1.623c-0.701,1.969-0.471,6.416-0.307,8.799
		c0.163,2.381,0.543,6.817,1.505,8.673c0.203,0.388,0.813,1.541,2.049,1.357C451.751,193.141,452.2,191.916,452.344,191.505z"/>
	<path class="st10" d="M452.796,208.542c-1.874-0.194-5.581,1.099-7.555,1.831c-1.974,0.73-5.631,2.164-6.927,3.532
		c-0.269,0.286-1.072,1.148-0.557,2.286c0.35,1.199,1.522,1.329,1.913,1.371c1.875,0.194,5.581-1.099,7.555-1.83
		c1.974-0.732,5.631-2.165,6.926-3.533c0.269-0.286,1.074-1.148,0.557-2.286C454.36,208.715,453.187,208.583,452.796,208.542z"/>
	<path class="st10" d="M449.541,261.09c1.603-2.117,2.92-7.896,3.175-11.038c0.413-3.123,0.338-9.052-0.785-11.458
		c-0.21-0.509-0.909-1.983-2.129-1.703c-1.253,0.033-1.617,1.54-1.755,2.035c-0.563,2.388-0.643,7.68-1.012,10.521
		c-0.238,2.856-1.27,8.047-1.223,10.501c0.031,0.512,0.069,2.061,1.286,2.357C448.232,262.838,449.225,261.543,449.541,261.09z"/>
	<path class="st10" d="M420.368,283.725c1.935-0.309,4.983-3.235,6.2-5.087c1.361-1.75,3.152-5.575,2.82-7.508
		c-0.042-0.403-0.261-1.569-1.489-1.801c-1.185-0.392-1.947,0.348-2.213,0.574c-1.19,1.151-2.684,4.002-3.765,5.406
		c-0.981,1.477-3.199,3.81-3.906,5.307c-0.128,0.323-0.582,1.284,0.172,2.28C418.799,283.981,419.974,283.813,420.368,283.725z"/>
	<path class="st10" d="M444.703,289.659c0.965-0.427,2.202-1.571,3.219-2.965c1.029-1.386,1.811-3.008,2.269-4.167
		c0.452-1.161,0.976-2.883,1.161-4.601c0.197-1.714,0.066-3.392-0.352-4.362c-0.166-0.415-0.754-1.58-1.987-1.388
		c-1.251,0.008-1.73,1.053-1.914,1.379c-0.745,1.619-1.442,5.098-2.231,6.892c-0.638,1.853-2.487,4.88-3.036,6.576
		c-0.086,0.363-0.444,1.454,0.469,2.309C443.076,290.31,444.301,289.854,444.703,289.659z"/>
	<path class="st10" d="M456.811,294.226c1.051-0.015,2.632-0.755,3.871-1.955c1.262-1.182,2.132-2.749,2.583-3.883
		c0.444-1.137,0.879-2.875,0.763-4.601c-0.086-1.723-0.736-3.342-1.492-4.071c-0.302-0.338-1.328-1.107-2.334-0.365
		c-1.095,0.608-1.195,1.533-1.289,1.808c-0.163,0.695-0.177,1.609-0.316,2.559c-0.125,0.948-0.399,1.915-0.646,2.573
		c-0.27,0.65-0.729,1.543-1.286,2.322c-0.546,0.788-1.16,1.466-1.514,2.087c-0.122,0.263-0.679,1.009-0.294,2.201
		C455.083,294.129,456.359,294.267,456.811,294.226z"/>
	<path class="st10" d="M405.655,280.803c1.358-0.477,3.302-1.829,4.993-3.574c1.711-1.732,3.122-3.844,3.978-5.375
		c0.845-1.538,1.892-3.851,2.454-6.219c0.585-2.361,0.702-4.725,0.388-6.13c-0.111-0.599-0.609-2.309-1.852-2.154
		c-1.25-0.113-1.808,1.371-2.035,1.838c-0.505,1.149-1.015,3.019-1.708,4.892c-0.676,1.876-1.555,3.739-2.245,5
		c-0.704,1.253-1.819,2.986-3.053,4.554c-1.223,1.578-2.537,3.001-3.246,4.038c-0.278,0.439-1.239,1.7-0.483,2.699
		C403.375,281.51,405.086,281.026,405.655,280.803z"/>
	<path class="st10" d="M424.114,247.488c1.885-0.599,4.45-4.027,5.321-6.093c1.048-1.982,2.08-6.137,1.348-7.976
		c-0.122-0.389-0.583-1.491-1.83-1.457c-1.242-0.132-1.829,0.747-2.043,1.018c-0.92,1.361-1.829,4.409-2.639,5.966
		c-0.693,1.613-2.476,4.245-2.947,5.82c-0.077,0.336-0.385,1.349,0.505,2.227C422.589,247.981,423.734,247.639,424.114,247.488z"/>
	<path class="st10" d="M399.292,249.796c1.447-0.4,3.591-1.588,5.604-3.119c2.024-1.518,3.882-3.38,5.098-4.744
		c1.209-1.37,2.836-3.438,4.101-5.627c1.279-2.182,2.205-4.452,2.429-5.936c0.111-0.622,0.311-2.473-0.901-2.793
		c-1.109-0.587-2.235,0.73-2.631,1.144c-0.929,1.019-2.127,2.822-3.449,4.621c-1.311,1.806-2.761,3.592-3.823,4.798
		c-1.073,1.199-2.673,2.852-4.309,4.37c-1.63,1.526-3.277,2.93-4.178,3.974c-0.363,0.444-1.536,1.718-0.821,2.749
		C396.874,250.397,398.687,249.979,399.292,249.796z"/>
	<path class="st10" d="M452.754,233.757c0.884,0.2,2.313-0.134,3.551-0.892c1.254-0.74,2.266-1.863,2.856-2.709
		c0.585-0.848,1.286-2.187,1.542-3.621c0.279-1.425,0.094-2.878-0.399-3.638c-0.189-0.341-0.899-1.193-2.088-0.814
		c-1.226,0.254-1.631,0.952-1.8,1.141c-0.665,0.986-1.245,2.758-1.948,3.67c-0.61,0.977-2.069,2.139-2.759,3.106
		c-0.119,0.223-0.632,0.847-0.444,2.084C451.324,233.333,452.369,233.698,452.754,233.757z"/>
	<path class="st10" d="M427.929,187.286c0.633,1.504,2.931,3.725,4.062,5.045c1.187,1.271,3.136,3.801,4.561,4.597
		c0.305,0.157,1.211,0.66,2.26-0.022c1.12-0.545,1.09-1.652,1.059-2.026c-0.077-1.802-2.251-4.899-3.618-6.36
		c-1.3-1.523-4.136-4.026-5.919-4.303c-0.365-0.073-1.464-0.228-2.129,0.827C427.408,186.007,427.808,186.966,427.929,187.286z"/>
	<path class="st10" d="M507.432,240.856c0.744-2.123-0.327-6.964-1.444-9.322c-0.923-2.441-3.665-6.571-5.708-7.508
		c-0.411-0.221-1.656-0.775-2.474,0.17c-0.956,0.804-0.585,1.978-0.488,2.37c0.588,1.836,2.637,5.192,3.41,7.205
		c0.912,1.953,1.908,5.758,2.822,7.454c0.214,0.342,0.802,1.427,2.044,1.295C506.842,242.584,507.308,241.303,507.432,240.856z"/>
	<path class="st5" d="M465.017,209.592c-5.636-1.184-8.29-9.286-4.447-13.574c3.842-4.288,12.185-2.536,13.979,2.937
		C476.341,204.426,470.651,210.777,465.017,209.592"/>
	<path class="st5" d="M221.884,507.523c-15.311-2.405-26.922-7.889-35.603-14.188c-8.711-6.314-14.777-13.433-19.557-20.983
		c-4.763-7.608-8.501-15.847-11.166-26.129c-2.62-10.23-4.197-22.782-1.949-38.329c2.326-15.18,7.148-26.608,12.125-36.006
		c5.135-9.357,10.605-16.795,16.907-23.499c12.646-13.298,28.4-23.836,55.271-34.742c2.748-1.109,9.391-1.331,9.884,1.538
		c1.708,2.352-3.061,6.958-5.681,8.179c-25.907,11.478-39.271,21.498-50.219,33.525c-5.412,6.055-10.162,12.784-14.634,21.152
		c-4.33,8.404-8.531,18.563-10.55,31.787c-1.947,13.513-0.634,24.297,1.542,33.21c2.206,8.929,5.307,16.111,9.196,22.713
		c3.946,6.592,8.704,12.571,15.871,18.16c7.125,5.53,16.735,10.587,30.362,13.178c1.353,0.264,3.853,1.264,5.991,2.451
		c2.129,1.176,3.898,2.612,3.477,4.005c0.238,1.434-1.747,2.599-4.248,3.316C226.409,507.569,223.415,507.742,221.884,507.523z"/>
	<path class="st5" d="M511.965,534.582c11.498-2.23,19.588-7.693,25.765-12.804c6.144-5.305,10.578-10.632,14.409-16.32
		c3.813-5.705,6.99-11.851,9.834-19.612c2.834-7.741,5.357-17.127,6.466-29.407c1.031-12.023,0.2-21.749-1.106-30.078
		c-1.422-8.318-3.452-15.304-6.07-22.063c-2.636-6.746-5.888-13.283-10.638-20.253c-2.357-3.496-5.118-7.081-8.495-10.699
		c-3.361-3.628-7.311-7.331-12.133-10.844c-1.855-1.494-5.129-6.164-3.285-8.382c0.821-2.789,7.053-1.915,9.36-0.289
		c5.603,3.793,10.206,7.807,14.137,11.749c3.945,3.938,7.198,7.844,9.987,11.664c5.614,7.623,9.524,14.819,12.699,22.296
		c3.152,7.483,5.606,15.299,7.317,24.601c1.583,9.296,2.561,20.093,1.425,33.448c-1.228,13.641-4.096,24.135-7.403,32.847
		c-3.316,8.711-7.133,15.728-11.728,22.175c-4.613,6.422-9.953,12.386-17.364,18.299c-7.464,5.681-17.193,11.841-31.48,14.121
		c-1.417,0.194-4.234-0.091-6.49-0.965c-2.282-0.925-3.945-2.214-3.591-3.631c-0.233-1.41,1.439-2.742,3.291-3.723
		C508.735,535.676,510.832,534.802,511.965,534.582z"/>
	<path class="st5" d="M471.985,292.646c-7.444-2.81-20.148-6.364-33.495-9.334c-13.339-3-27.312-5.358-37.094-6.794
		c-9.784-1.412-23.849-3.139-37.494-4.067c-13.637-0.963-26.827-1.179-34.765-0.609c-3.322,0.21-13.183,1.074-12.396,3.574
		c-0.845,2.484,8.878,3.737,12.125,4.221c7.788,1.092,20.716,2.206,34.086,3.636c13.375,1.399,27.179,3.167,36.797,4.557
		c9.612,1.413,23.35,3.655,36.567,6.127c13.222,2.443,25.932,5.062,33.706,6.237c3.252,0.461,12.926,2.034,12.826-0.589
		C484.314,297.436,475.11,293.795,471.985,292.646z"/>
	<path class="st5" d="M171.252,290.358c-8.648,0.022-17.074-1.338-24.093-5.734c-6.851-4.423-11.238-10.749-12.898-17.861
		c-0.796-3.55-0.72-7.382,0.374-10.859c1.073-3.496,3.009-6.425,5.19-8.725c4.439-4.588,9.308-6.893,13.677-8.966
		c17.026-7.643,33.866-15.033,63.771-27.984c7.347-3.158,13.967-6.004,20.042-8.614c6.227-2.572,12.125-4.771,17.95-6.301
		c11.517-3.147,23.117-3.599,33.703,0.111c10.525,3.715,19.3,10.77,26.586,20.478c7.358,9.826,12.618,22.547,16.976,38.101
		c0.895,3.198,0.491,10.484-2.437,10.552c-2.523,1.48-6.698-4.475-7.699-7.496c-4.63-14.958-9.798-26.042-16.158-34.019
		c-6.363-7.985-13.564-13.206-21.288-15.711c-7.719-2.468-16.28-2.211-26.267,0.597c-5.002,1.365-10.356,3.386-16.287,5.867
		c-6.019,2.603-12.579,5.44-19.859,8.589c-29.836,12.931-46.97,20.214-63.885,27.324c-4.007,1.725-7.652,3.582-10.037,5.962
		c-2.342,2.391-3.507,5.03-2.83,8.732c0.657,3.615,3.288,8,7.497,10.824c4.139,2.828,10.541,4.409,18.093,4.544
		c2.934,0.197,12.044,2.014,11.534,4.872C183.867,287.432,174.828,290.4,171.252,290.358z"/>
	<path class="st5" d="M217.648,320.462c-2.812-1.061-7.437-2.123-12.114-3.555c-3.826-1.183-6.778-3.685-8.334-5.926
		c-1.67-2.136-3.053-6.006-3.001-9.836c0.081-3.827,1.633-7.238,2.821-9.473c0.111-0.251,0.274-0.625,0.466-1.056
		c0.23-0.397,0.471-0.874,0.654-1.397c0.347-1.054,0.566-2.282-0.194-3.253c-0.515-1.168-1.727-1.427-3.066-1.185
		c-0.668,0.109-1.358,0.325-1.974,0.556c-0.577,0.281-1.059,0.603-1.389,0.809c-1.6,0.959-3.496,2.72-5.018,5.195
		c-1.664,2.418-2.62,5.619-3.125,8.9c-0.358,3.309-0.05,6.721,0.823,9.752c0.458,1.501,1.027,2.925,1.636,4.208
		c0.721,1.234,1.281,2.462,2.052,3.403c1.425,1.939,3.391,4.227,6.069,5.978c2.568,1.903,5.85,3.118,8.961,3.87
		c5.456,1.121,10.849,1.359,14.077,0.781c1.367-0.2,5.326-1.109,5.043-3.622C222.38,322.14,218.801,320.941,217.648,320.462z"/>
	<path class="st5" d="M631.366,366.195c3.546,1.987,6.95,3.2,10.001,3.5c3.005,0.22,5.814-0.347,8.113-1.619
		c2.226-1.21,3.291-2.617,3.795-4.391c0.518-1.781,0.335-4.087-0.261-6.335c-0.633-2.293-1.661-4.426-2.955-6.557
		c-1.442-2.38-2.873-4.665-4.309-6.883c-2.877-4.432-5.75-8.602-8.695-12.735c-5.9-8.268-12.118-16.372-19.615-26.047
		c-3.759-4.88-7.818-10.148-12.33-16.001c-4.525-5.994-9.136-12.627-14.531-19.663c-10.466-13.792-20.198-23.117-30.129-27.925
		c-9.915-4.942-19.378-5.604-28.339-3.046c-8.98,2.556-17.517,7.984-26.023,16.112c-8.462,8.203-17.082,19.133-25.527,34.209
		c-1.789,3.001-7.17,8.726-9.39,6.828c-2.947-0.429-1.703-8.555,0.077-11.867c8.529-16.128,17.379-28.1,26.589-37.523
		c9.266-9.307,19.125-16.225,30.755-19.822c5.795-1.75,12.039-2.593,18.449-2.041c6.405,0.53,12.892,2.368,19.144,5.409
		c6.274,3.022,12.393,7.325,18.133,12.67c5.742,5.359,11.251,11.712,16.766,18.93c5.647,7.367,10.27,14.04,14.597,19.807
		c4.439,5.833,8.437,11.086,12.138,15.949c7.45,9.791,13.663,18.16,19.566,26.815c2.947,4.331,5.823,8.729,8.709,13.434
		c1.439,2.356,2.878,4.791,4.325,7.335c1.588,2.784,3.1,6.038,3.99,9.698c0.84,3.666,1.302,7.973-0.142,12.624
		c-0.688,2.317-2.024,4.565-3.682,6.512c-1.73,1.875-3.796,3.425-5.98,4.48c-4.217,2.167-9.316,3.054-14.426,2.49
		c-5.082-0.64-9.814-2.635-14.115-5.181c-1.725-1.033-4.508-3.59-6.299-6.143c-1.816-2.548-2.812-5.019-1.622-5.878
		c0.555-1.373,3.191-0.932,6.002-0.037C626.962,364.221,629.946,365.424,631.366,366.195z"/>
	<path class="st5" d="M576.718,396.589c1.88,4.015,7.328,10.001,15.413,12.342c3.929,1.21,8.484,1.342,12.424,0.455
		c3.926-0.904,7.265-2.614,9.727-4.401c2.478-1.758,5.19-4.459,7.225-8.087c0.971-1.833,1.841-3.852,2.262-6.047
		c0.463-2.19,0.599-4.56,0.28-6.743c-0.516-4.432-2.506-8.283-4.86-11.12c-2.404-2.834-5.268-4.625-7.603-5.395
		c-0.956-0.349-2.98-0.869-4.724-0.591c-1.75,0.233-3.011,1.095-2.85,2.33c-0.253,1.248,0.71,2.182,1.591,3.031
		c0.916,0.818,1.841,1.643,2.277,2.092c1.059,1.035,2.351,2.455,3.433,4.318c1.034,1.866,1.88,4.172,1.924,6.392
		c0.136,2.182-0.51,4.262-1.597,6.164c-1.118,1.848-2.617,3.388-4.063,4.397c-1.42,1.034-3.379,2.037-5.595,2.624
		c-2.209,0.538-4.599,0.612-7.098,0.072c-4.996-0.993-9.368-4.357-11.924-6.51c-0.569-0.434-1.628-1.371-2.742-2.14
		c-1.117-0.751-2.343-1.368-3.419-0.696c-1.22,0.295-1.592,1.714-1.414,3.337C575.545,394.03,576.286,395.76,576.718,396.589z"/>
	<path class="st5" d="M390.197,427.818c-1.949,0.802-4.68,1.615-7.721,1.537c-1.511-0.043-3.073-0.301-4.536-0.837
		c-1.43-0.516-2.855-1.371-4.339-2.507c-2.97-2.253-5.872-5.55-9.413-8.488c-1.772-1.464-3.746-2.842-5.93-3.851
		c-2.196-1.018-4.583-1.513-6.707-1.617c-2.158-0.078-4.497,0.289-6.724,1.021c-2.182,0.766-4.242,1.816-6.166,2.95
		c-3.789,2.257-7.253,4.834-10.416,6.016c-3.119,1.179-5.792,0.948-8.079-0.538c-2.249-1.424-3.391-3.495-3.876-5.351
		c-0.244-0.759-0.483-2.368-0.502-3.896c-0.061-1.507,0.103-2.985-0.865-3.332c-0.657-0.784-2.213,0.113-3.335,2.003
		c-1.151,1.848-1.55,4.503-1.508,5.832c-0.136,3.124,1.419,7.866,5.423,11.018c1.952,1.579,4.439,2.806,7.284,3.262
		c2.828,0.39,5.733,0.067,8.287-0.781c5.091-1.727,8.812-4.551,12.152-6.4c1.647-0.939,3.161-1.659,4.503-2.128
		c1.331-0.41,2.474-0.564,3.465-0.539c1.004,0.073,2.094,0.25,3.3,0.795c1.212,0.554,2.551,1.426,3.973,2.568
		c2.878,2.255,5.936,5.604,10.02,8.484c2.026,1.418,4.403,2.716,6.97,3.429c2.526,0.716,5.041,0.885,7.342,0.697
		c4.62-0.392,8.32-2.211,10.649-4.023c0.988-0.744,2.817-2.45,3.796-4.281c1.011-1.829,1.142-3.566,0.171-3.825
		c-0.745-0.746-2.016,0.075-3.418,0.846C392.596,426.689,391.021,427.483,390.197,427.818z"/>
	<path class="st5" d="M366.345,436.494c-3.23,7.053-7.9,19.027-12.571,31.503c-2.304,6.252-4.647,12.613-6.832,18.542
		c-1.074,2.97-2.107,5.833-3.08,8.518c-0.873,2.582-1.839,4.478-2.723,5.449c-0.432,0.45-0.743,0.634-0.853,0.633
		c-0.202,0.015-0.175,0.083-0.555-0.116c-0.807-0.478-1.644-1.67-1.883-4.255c-0.128-1.243-0.172-2.807-0.183-4.455
		c-0.02-1.624-0.042-3.268-0.061-4.921c-0.056-3.309-0.111-6.66-0.164-9.981c-0.257-13.286-0.681-26.101-1.383-33.823
		c-0.294-3.225-1.186-12.844-3.174-12.071c-1.999-0.83-2.8,8.798-3.063,12.033c-0.633,7.739-0.937,20.615-1.07,33.971
		c-0.026,3.339-0.048,6.708-0.073,10.034c-0.005,1.663-0.011,3.316-0.016,4.948c-0.009,1.607-0.004,3.264,0.166,5.166
		c0.185,1.89,0.569,3.95,1.569,6.026c1.034,2.1,2.548,3.874,4.649,5.161c2.057,1.318,5.022,1.798,7.392,1.168
		c2.497-0.587,4.269-2.073,5.467-3.363c2.349-2.636,3.574-5.729,4.556-8.528c0.95-2.692,1.965-5.562,3.019-8.541
		c2.071-5.967,4.294-12.372,6.479-18.666c4.3-12.609,8.284-24.827,10.261-32.329c0.827-3.135,3.269-12.482,1.121-12.399
		C371.735,424.77,367.695,433.547,366.345,436.494z"/>
	<path class="st5" d="M363.706,516.344c-2.033,1.414-5.116,3.834-8.79,5.428c-3.626,1.677-7.666,2.415-10.447,2.467
		c-2.78,0.074-6.848-0.478-10.549-1.988c-3.74-1.425-6.932-3.702-9.025-5.023c-0.918-0.474-3.388-2.443-4.907-1.178
		c-1.883,0.835-0.419,4.318,0.316,5.402c1.497,2.663,5.212,6.385,10.031,8.716c4.761,2.445,10.417,3.335,14.343,3.214
		c3.929-0.058,9.538-1.205,14.184-3.864c4.705-2.548,8.246-6.435,9.624-9.165c0.682-1.116,1.986-4.663,0.067-5.41
		C366.977,513.748,364.601,515.827,363.706,516.344z"/>
	<path class="st5" d="M307.503,347.653c-0.663-2.189-2.639-5.308-5.149-8.167c-2.493-2.876-5.515-5.438-7.713-7.088
		c-2.207-1.64-5.52-3.808-8.986-5.381c-3.455-1.594-7.006-2.604-9.294-2.616c-0.965-0.03-3.796,0.086-4.209,2.299
		c-0.821,2.1,1.206,3.732,1.838,4.308c1.566,1.349,4.314,2.92,7.076,4.645c2.77,1.706,5.536,3.596,7.419,4.989
		c1.872,1.41,4.47,3.527,6.893,5.698c2.437,2.159,4.724,4.346,6.462,5.464c0.732,0.444,2.873,1.923,4.653,0.538
		C308.499,351.317,307.805,348.57,307.503,347.653z"/>
	<path class="st5" d="M303.539,349.065c-4.12-0.933-13.225,0.219-18.099,0.908c-4.872,0.688-13.938,2.106-17.639,4.143
		c-0.774,0.426-3.075,1.714-2.557,3.906c0.111,2.25,2.678,2.851,3.538,3.044c4.12,0.933,13.225-0.217,18.099-0.907
		c4.872-0.689,13.94-2.105,17.639-4.144c0.774-0.426,3.075-1.714,2.56-3.906C306.969,349.861,304.398,349.26,303.539,349.065z"/>
	<path class="st5" d="M440.134,374.238c2.088-0.641,5.088-2.165,8.263-3.559c3.16-1.415,6.504-2.662,8.878-3.427
		c2.381-0.743,5.833-1.651,9.232-2.316c3.396-0.689,6.73-1.173,8.803-1.851c0.852-0.306,3.499-1.058,3.507-3.315
		c0.461-2.206-2.32-3.379-3.299-3.702c-2.291-0.831-6.247-1.16-10.32-0.823c-4.079,0.308-8.215,1.316-11.032,2.2
		c-2.812,0.9-6.773,2.46-10.284,4.558c-3.524,2.071-6.565,4.619-7.96,6.62c-0.612,0.826-2.212,3.388-0.565,4.926
		C436.666,375.388,439.261,374.477,440.134,374.238z"/>
	<path class="st5" d="M470.086,387.449c-0.633-1.984-2.551-4.722-4.985-7.145c-2.42-2.442-5.343-4.512-7.461-5.803
		c-2.127-1.279-5.313-2.915-8.598-3.93c-3.275-1.04-6.588-1.474-8.64-1.115c-0.87,0.124-3.379,0.701-3.473,2.95
		c-0.468,2.204,1.467,3.466,2.065,3.926c1.489,1.061,3.995,2.14,6.521,3.358c2.531,1.202,5.062,2.573,6.79,3.609
		c1.72,1.053,4.106,2.664,6.341,4.353c2.248,1.673,4.364,3.398,5.994,4.227c0.685,0.319,2.698,1.449,4.436,0.015
		C471.026,390.771,470.377,388.278,470.086,387.449z"/>
	<path class="st5" d="M146.848,399.706c-8.889-13.545-13.131-21.785-17.24-30.045c-4.017-8.308-7.741-16.81-12.685-32.3
		c-4.569-15.243-6.443-24.709-7.865-34.205c-1.336-9.503-2.465-19.072-2.748-34.924c0.008-1.631,2.251-5.103,5.099-4.796
		c2.817-0.409,5.337,2.823,5.479,4.358c1.131,15.177,2.85,24.217,4.55,33.211c1.78,8.981,3.781,17.932,8.137,32.435
		c4.716,14.737,8.054,22.898,11.495,30.999c3.527,8.059,6.982,16.211,14.767,29.674c0.751,1.342,1.065,6.322-1.486,7.587
		C152.179,403.569,147.779,401.049,146.848,399.706z"/>
	<path class="st5" d="M97.196,225.146c1.444-1.074,3.441-2.323,5.841-3.202c2.412-0.85,5.227-1.217,7.744-0.673
		c2.487,0.481,4.843,1.937,6.628,3.817c1.778,1.891,2.942,4.117,3.452,5.975c0.56,1.91,0.791,4.056,0.125,6.552
		c-0.569,2.52-2.099,5.265-4.128,8.048c-2.01,2.784-4.436,5.59-6.54,8.356c-2.116,2.751-3.866,5.525-4.855,7.811
		c-0.2,0.488-0.497,1.217-0.779,2.038c-0.25,0.854-0.455,1.826-0.561,2.717c-0.105,1.874,0.288,3.402,1.553,3.552
		c1.113,0.587,2.382-0.264,3.457-1.265c0.605-0.491,1.145-1.048,1.625-1.552c0.526-0.491,0.959-0.942,1.245-1.243
		c1.494-1.483,3.441-3.409,5.647-5.597c2.321-2.274,5.091-4.904,7.785-8.152c2.673-3.209,5.304-7.244,6.499-11.798
		c0.627-2.201,0.924-4.621,0.86-6.795c-0.116-2.17-0.419-4.182-0.964-5.888c-0.98-3.453-3.028-7.356-6.313-10.678
		c-3.25-3.299-7.933-6.002-13.05-6.633c-5.077-0.687-9.909,0.572-13.558,2.548c-3.662,2.016-6.246,4.688-7.652,7.006
		c-0.579,0.974-1.664,2.978-1.863,4.907c-0.274,1.908,0.239,3.505,1.475,3.616c1.153,0.577,2.307-0.304,3.455-1.164
		C95.419,226.538,96.612,225.607,97.196,225.146z"/>
	<path class="st5" d="M55.758,303.63c-7.908-6.997-12.865-13.739-16.66-19.76c-3.66-6.123-6.144-11.614-8.171-17.272
		c-1.829-5.708-3.524-11.534-4.247-18.691c-0.751-7.121-0.985-15.579,1.075-26.105c2.072-10.183,5.451-18.417,10.453-24.809
		c2.522-3.172,5.428-5.917,8.808-7.928c3.369-1.994,7.123-3.28,10.938-3.657c7.643-0.691,14.922,1.654,21.446,6.437
		c6.618,4.921,11.778,12.606,15.185,22.405c0.729,2.052-0.294,6.935-3.166,7.252c-2.599,1.163-6.022-1.933-6.749-3.539
		c-3.293-8.25-7.66-13.619-12.104-16.572c-4.525-3-9.236-4.057-13.184-3.497c-3.909,0.595-7.519,2.742-10.835,7.092
		c-3.314,4.358-6.058,10.746-7.805,19.43c-1.725,8.828-1.586,16.012-1.045,22.106c0.501,6.128,1.832,11.167,3.199,16.161
		c1.561,4.945,3.468,9.798,6.368,15.275c3.028,5.379,7.036,11.451,13.616,17.839c1.234,1.265,3.823,6.344,1.833,8.409
		C63.449,306.79,57.39,305.057,55.758,303.63z"/>
	<path class="st5" d="M159.612,562.714c-5.439-5.606-9.801-10.981-13.508-16.009c-1.877-2.501-3.61-4.911-5.168-7.268
		c-1.619-2.325-3.097-4.582-4.456-6.784c-5.523-8.761-9.767-16.338-13.688-24.051c-3.943-7.705-7.652-15.515-11.655-24.964
		c-4.012-9.442-8.384-20.502-13.308-34.809c-9.505-28.048-13.852-45.41-17.897-62.807c-1.993-8.71-3.763-17.471-5.612-27.709
		c-1.816-10.245-3.696-21.973-5.276-36.737c-0.3-3.03,1.444-9.649,4.325-9.221c2.764-0.918,5.75,5.068,6.188,7.971
		c1.969,14.328,4.183,25.763,6.285,35.744c2.135,9.977,4.137,18.517,6.308,27.018c4.397,16.973,8.885,33.969,18.204,61.431
		c4.825,14.006,9.044,24.816,12.851,34.05c3.798,9.243,7.25,16.884,10.866,24.428c3.596,7.556,7.446,14.976,12.44,23.518
		c1.232,2.151,2.565,4.345,4.029,6.597c1.412,2.294,2.972,4.623,4.663,7.034c3.341,4.858,7.267,10.003,12.1,15.289
		c1.769,2.204,6.097,9.299,3.81,11.07C169.845,569.164,161.733,565.076,159.612,562.714z"/>
	<path class="st5" d="M707.245,346.354c-10.294,20.063-17.401,30.817-24.581,41.445c-7.304,10.553-15.013,20.902-30.293,37.566
		c-3.865,3.955-7.256,7.613-10.55,10.783c-3.318,3.149-6.266,6.09-9.166,8.68c-2.914,2.576-5.62,4.968-8.226,7.272
		c-2.692,2.2-5.279,4.313-7.865,6.427c-10.517,8.217-21.236,16.263-40.153,27.622c-1.963,1.129-7.228,1.595-8.242-1.109
		c-1.863-2.176,0.846-6.67,2.65-7.881c17.902-11.757,27.861-20.053,37.751-28.329c2.437-2.112,4.875-4.227,7.411-6.425
		c2.474-2.272,5.041-4.633,7.805-7.172c2.762-2.54,5.573-5.412,8.756-8.468c3.16-3.079,6.416-6.622,10.145-10.437
		c14.73-16.083,22.333-25.919,29.739-35.863c7.295-10.02,14.714-20.041,25.48-39.096c1.081-1.883,6.066-6.209,8.37-4.508
		C709.044,337.677,708.238,344.315,707.245,346.354z"/>
	<path class="st5" d="M728.183,302.819c-0.325-5.264-5.742-12.896-14.853-14.53c-1.106-0.254-2.304-0.251-3.473-0.289
		c-1.178,0.09-2.437,0.177-3.452,0.452c-2.143,0.444-4.156,1.281-5.925,2.286c-3.574,2.021-6.108,4.721-7.807,7.064
		c-1.722,2.347-3.408,5.43-4.505,8.985c-0.547,1.778-0.954,3.668-1.187,5.621c-0.193,1.891-0.274,3.783-0.185,5.632
		c0.338,7.44,2.617,13.747,4.414,17.215c0.762,1.482,3.142,5.677,5.412,4.572c2.492-0.358,2.157-5.122,2.099-6.674
		c-0.177-3.748-1.273-9.631-1.062-15.199c0.038-1.392,0.193-2.766,0.388-4.078c0.214-1.243,0.522-2.466,0.907-3.616
		c0.782-2.304,1.891-4.27,2.933-5.694c1.035-1.44,2.506-2.966,4.281-4.025c0.882-0.535,1.828-0.981,2.836-1.234
		c0.538-0.193,0.915-0.173,1.348-0.287c0.449,0.025,0.895-0.081,1.381,0.017c1.927,0.114,4.009,1.09,5.589,2.224
		c1.594,1.17,2.615,2.496,3.317,3.53c0.279,0.437,0.865,1.334,1.306,2.327c0.526,0.966,1.017,2.178,2.262,2.454
		c1.058,0.639,2.384-0.174,3.207-1.82C728.324,306.122,728.294,303.881,728.183,302.819z"/>
	<path class="st5" d="M730.509,401.714c20.897-21.374,31.208-34.51,39.925-48.47c4.264-7.008,8.107-14.214,11.514-23.239
		c3.319-8.983,6.563-19.848,6.801-33.79c0.08-6.791-0.719-12.903-1.936-18.258c-1.255-5.22-3.197-9.691-5.567-13.072
		c-4.779-6.844-10.957-8.747-17.594-7.131c-6.682,1.703-13.48,6.497-19.299,13.782c-5.93,7.43-11.634,17.208-14.645,30.639
		c-0.317,1.365-1.279,3.401-2.462,5.061c-1.14,1.654-2.587,2.939-3.962,2.487c-1.447,0.224-2.598-1.317-3.341-3.402
		c-0.701-2.07-0.898-4.648-0.615-6.227c2.98-15.457,9.138-26.902,15.768-35.775c3.335-4.477,7.183-8.398,11.323-11.556
		c4.197-3.127,8.753-5.751,14.06-7.171c5.218-1.489,11.359-1.578,17.082,0.478c5.794,1.994,10.755,6.22,14.336,11.238
		c3.613,5.063,6.111,10.95,7.741,17.532c1.523,6.489,2.443,13.611,2.357,21.537c-0.291,16.206-4.039,28.366-7.827,38.318
		c-3.884,9.966-8.287,17.838-13.098,25.293c-9.759,14.787-21.326,28.255-43.088,49.226c-2.193,2.081-9.851,6.282-11.354,3.786
		C724.157,411.461,728.455,403.875,730.509,401.714z"/>
	<path class="st5" d="M588.175,569.12c19.197-15.008,29.109-24.721,39.038-34.315c9.834-9.696,19.535-19.573,35.178-38.161
		c3.69-4.658,7.133-8.763,10.1-12.684c2.939-3.938,5.714-7.449,8.146-10.849c2.432-3.4,4.694-6.561,6.871-9.602
		c2.093-3.098,4.103-6.077,6.116-9.054c7.852-12.027,15.709-24.127,26.57-45.356c1.122-2.145,5.531-5.783,7.865-4.104
		c2.82,0.678,2.686,6.43,1.664,8.715c-10.33,22.145-17.831,34.934-25.532,47.545c-1.987,3.118-3.975,6.234-6.046,9.48
		c-2.185,3.17-4.456,6.464-6.895,10.009c-2.459,3.532-5.282,7.178-8.288,11.251c-3.031,4.055-6.563,8.296-10.364,13.094
		c-16.106,19.156-26.267,29.182-36.692,38.833c-10.522,9.543-21.174,19.025-41.392,33.68c-2.057,1.43-9.041,3.64-10.23,0.996
		C582.202,576.612,586.278,570.621,588.175,569.12z"/>
	<path class="st5" d="M176.647,651.485c-2.67-7.091-4.079-12.892-5.141-17.912c-0.634-2.498-0.848-4.852-1.217-7.085
		c-0.355-2.238-0.651-4.379-0.757-6.536c-0.138-2.156-0.346-4.313-0.41-6.575c0.017-2.265,0.033-4.632,0.052-7.203
		c0.072-2.572,0.386-5.335,0.621-8.411c0.297-3.071,0.924-6.41,1.5-10.168c0.86-3.619,1.474-6.923,2.359-9.871
		c0.921-2.937,1.639-5.649,2.562-8.098c0.948-2.438,1.829-4.705,2.681-6.887c1.003-2.113,1.968-4.144,2.936-6.175
		c4.187-7.918,8.703-15.838,18.64-26.861c1.062-1.112,4.897-1.897,6.732,0.308c2.262,1.711,2.098,5.549,1.272,6.62
		c-8.387,10.552-11.889,18.003-15.29,25.317c-0.788,1.865-1.575,3.73-2.395,5.67c-0.705,1.987-1.434,4.049-2.221,6.269
		c-0.785,2.219-1.378,4.677-2.188,7.322c-0.774,2.657-1.297,5.636-2.082,8.89c-0.501,3.383-1.092,6.383-1.378,9.144
		c-0.227,2.765-0.56,5.246-0.673,7.556c-0.086,2.314-0.167,4.441-0.241,6.478c-0.022,2.036,0.08,3.98,0.097,5.928
		c-0.02,1.953,0.136,3.891,0.327,5.923c0.208,2.027,0.239,4.181,0.665,6.462c0.648,4.59,1.553,9.929,3.576,16.505
		c0.372,1.293-0.59,5.795-3.318,6.562C180.839,656.035,177.226,652.918,176.647,651.485z"/>
	<path class="st5" d="M580.853,654.535c0.792-3.66,1.272-9.7,1.752-15.95c0.491-6.248,0.998-12.708,1.353-17.22
		c0.44-4.504,1.073-10.954,1.682-17.19c0.618-6.238,1.204-12.27,1.065-16.012c-0.069-1.561-0.205-6.234-2.725-6.371
		c-2.357-0.886-4.315,3.453-4.938,4.929c-1.514,3.514-3.028,9.579-4.162,15.949c-1.147,6.368-1.893,13.033-2.309,17.691
		c-0.405,4.659-0.84,11.35-0.823,17.821c0.003,6.47,0.429,12.707,1.306,16.431c0.355,1.562,1.525,6.178,4,5.717
		C579.557,660.637,580.511,656.058,580.853,654.535z"/>
	<path class="st5" d="M393.583,204.7c-1.697,4.653-1.883,7.483-2.182,10.21c-0.235,2.741-0.407,5.496-0.011,10.304
		c0.579,4.685,1.297,7.475,2.143,10.218c0.896,2.721,1.761,5.537,4.314,9.675c0.222,0.419-0.979,2.78-3.216,4.51
		c-2.085,1.932-4.736,2.394-5.199,1.917c-4.081-4.716-5.95-8.106-7.602-11.529c-1.592-3.459-2.845-7.144-3.616-13.428
		c-0.557-6.448-0.047-10.171,0.765-13.745c0.893-3.547,1.941-7.139,5.06-12.719c0.364-0.567,3.247-1.019,5.659,0.485
		C392.224,201.876,393.716,204.254,393.583,204.7z"/>
	<path class="st5" d="M372.428,270.002c3.371-5.933,3.488-6.911,6.871-12.662c3.074-5.758,4.033-6.778,7.211-12.645
		c0.183-0.284,2.678-0.178,5.329,0.818c2.709,0.845,4.691,2.378,4.633,2.765c-1.821,7.23-2.094,8.903-5.606,15.516
		c-1.883,3.339-3.158,5.116-4.544,6.799c-1.4,1.672-2.897,3.278-5.587,5.974c-0.302,0.255-2.808-0.423-4.949-2.282
		C373.545,272.552,372.284,270.307,372.428,270.002z"/>
	<path class="st5" d="M418.108,201.115c-9.435-7.683-17.589-12.71-24.82-16.584c-7.256-3.848-13.613-6.556-20.062-8.958
		c-6.452-2.392-13.045-4.432-21.03-6.195c-3.992-0.886-8.334-1.673-13.189-2.35c-4.636-0.444-11.104-1.671-14.181-0.413
		c-0.297,0.148-0.577,0.291-0.845,0.427l-0.004,0.007l0.02,0.008l0.655,0.187c4.976,1.459,9.437,2.999,13.575,4.513
		c8.254,3.102,15.144,6.272,21.856,9.751c6.704,3.5,13.247,7.317,20.526,12.246c7.261,4.946,15.273,11.016,24.47,19.457
		c1.863,1.762,4.475,6.807,2.52,7.978c-1.147,1.957-6.194-0.283-8.035-1.861c-9.047-7.851-16.893-13.425-23.977-17.946
		c-7.098-4.505-13.444-7.963-19.913-11.15c-6.473-3.167-13.083-6.07-20.961-8.938c-3.951-1.4-8.201-2.832-12.934-4.196
		c-1.001-0.279-2.012-0.561-3.039-0.846l-1.861-0.519c-0.523-0.239-0.89-0.58-1.347-0.869l-1.315-0.911l-0.662-0.459l-0.292-0.835
		c-0.407-1.102-0.701-2.257-0.748-3.485c-0.075-2.433,0.663-5.096,2.365-7.396c0.845-1.141,1.869-2.214,3.078-3.093
		c1.006-0.728,2.151-1.3,3.155-1.683c4.367-1.617,8.085-1.267,11.043-1.081c2.915,0.301,5.631,0.57,8.232,0.923
		c5.185,0.741,9.815,1.615,14.065,2.602c8.499,1.967,15.479,4.267,22.278,6.974c6.79,2.718,13.444,5.799,20.996,10.109
		c7.525,4.335,15.976,9.913,25.694,18.292c2.013,1.636,5.939,7.906,4,9.062C426.263,205.869,420.052,202.538,418.108,201.115z"/>
	<path class="st5" d="M513.088,217.23c-1.128-6.894-3.15-12.056-5.218-16.273c-2.107-4.211-4.247-7.561-6.701-10.641
		c-2.44-3.081-5.049-6.051-8.589-9.064c-3.527-3.002-7.905-6.214-14.09-9.009c-6.106-2.609-11.423-3.718-16.103-4.295
		c-4.694-0.581-8.809-0.543-12.884-0.183c-4.076,0.355-8.165,1.013-12.743,2.438c-4.566,1.419-9.695,3.511-15.379,7.307
		c-1.092,0.774-4.969,0.798-6.593-1.526c-2.165-1.893-0.971-5.895,0.338-7.014c6.507-4.94,12.468-7.829,17.824-9.87
		c5.374-2.043,10.229-3.147,15.133-3.821c4.902-0.675,9.903-0.905,15.684-0.326c5.758,0.584,12.368,1.877,20.054,5.165
		c7.791,3.505,13.178,7.549,17.431,11.329c4.264,3.801,7.308,7.529,10.065,11.406c2.764,3.879,5.085,8.067,7.275,13.267
		c2.143,5.205,4.15,11.514,5.004,19.816c0.211,1.712-1.982,6.438-4.808,6.083C515.939,222.36,513.398,218.534,513.088,217.23z"/>
	<polygon class="st11" points="8.078,479.799 41.662,456.392 60.998,468.603 29.449,494.047 	"/>
	<path class="st5" d="M40.4,454.181c-4.538,1.38-14.273,6.356-19.396,9.4c-2.559,1.504-6.196,3.756-9.516,6.248
		c-3.33,2.478-6.305,5.195-7.816,7.115c-0.643,0.798-2.44,3.244-1.306,4.077c0.779,1.169,3.285-0.331,4.136-0.797
		c2.033-1.148,5.129-3.316,8.437-5.447c3.296-2.144,6.795-4.264,9.271-5.718c4.918-2.925,14.502-8.016,18.229-11.057
		c0.776-0.633,3.072-2.544,2.196-3.642C44.188,453.028,41.351,453.893,40.4,454.181z"/>
	<path class="st5" d="M63.341,465.399c-1.761-2.429-7.503-5.881-10.766-7.321c-3.197-1.579-9.529-3.771-12.523-3.564
		c-0.624,0.02-2.465,0.16-2.651,1.538c-0.463,1.311,1.01,2.294,1.489,2.634c2.346,1.541,8.043,3.687,10.996,5.141
		c3.011,1.333,8.312,4.33,10.999,5.139c0.569,0.15,2.268,0.649,2.977-0.547C64.799,467.393,63.726,465.89,63.341,465.399z"/>
	<path class="st5" d="M32.311,493.6c-2.373-2.281-8.842-5.744-12.33-7.563c-3.491-1.817-10.034-5.133-13.261-5.772
		c-0.677-0.133-2.689-0.52-3.186,0.783c-0.784,1.152,0.688,2.581,1.184,3.058c2.371,2.28,8.838,5.743,12.33,7.56
		c3.488,1.819,10.034,5.135,13.26,5.773c0.674,0.134,2.69,0.52,3.183-0.783C34.276,495.505,32.804,494.074,32.311,493.6z"/>
	<path class="st5" d="M60.743,467.311c-2.013,0.737-5.086,2.462-8.083,4.522c-3.008,2.049-5.933,4.409-7.926,6.09
		c-4.015,3.366-11.049,9.868-13.519,13.252c-0.515,0.711-2.057,2.834-0.992,3.741c0.743,1.187,3.071-0.062,3.851-0.489
		c3.74-2.038,10.893-8.419,14.753-11.653c3.815-3.349,11.254-8.932,14.237-11.809c0.61-0.612,2.462-2.438,1.572-3.518
		C64.115,466.147,61.589,467.004,60.743,467.311z"/>
	<path class="st12" d="M459.226,609.363l30.532,24.426l17.301-5.088c0,0-26.461-24.425-29.514-24.425
		C474.491,604.276,459.226,609.363,459.226,609.363z"/>
	<path class="st5" d="M491.598,631.558c-3.535-2.881-12.302-8.351-16.799-11.618c-4.591-3.135-12.693-9.549-16.596-11.908
		c-0.829-0.473-3.283-1.936-4.059-0.766c-1.117,0.845,0.579,3.214,1.173,3.994c2.745,3.813,11.076,10.627,15.825,13.87
		c4.652,3.38,13.872,8.932,18.388,10.233c0.934,0.296,3.735,1.097,4.157-0.241C494.526,633.996,492.322,632.18,491.598,631.558z"/>
	<path class="st5" d="M477.303,600.818c-2.695-0.362-8.517,0.818-11.63,1.494c-3.114,0.677-8.903,2.018-11.204,3.466
		c-0.483,0.302-1.914,1.215-1.49,2.539c0.164,1.38,1.845,1.617,2.407,1.693c2.694,0.362,8.52-0.818,11.633-1.494
		c3.114-0.677,8.901-2.018,11.205-3.466c0.479-0.303,1.91-1.215,1.486-2.539C479.546,601.13,477.865,600.893,477.303,600.818z"/>
	<path class="st5" d="M504.951,623.115c-2.133-2.899-8.382-8.024-11.762-10.736c-3.379-2.715-9.731-7.709-13.023-9.167
		c-0.688-0.303-2.745-1.2-3.471-0.008c-1.007,0.966,0.313,2.78,0.759,3.386c2.132,2.899,8.382,8.024,11.758,10.737
		c3.379,2.713,9.735,7.709,13.025,9.164c0.687,0.304,2.745,1.201,3.469,0.01C506.714,625.535,505.397,623.721,504.951,623.115z"/>
	<path class="st5" d="M504.444,628.52c-2.309-0.586-7.37,0.093-10.076,0.502c-2.709,0.409-7.744,1.252-9.778,2.496
		c-0.425,0.26-1.689,1.045-1.37,2.396c0.094,1.385,1.533,1.764,2.018,1.885c2.309,0.588,7.369-0.091,10.075-0.5
		c2.709-0.409,7.744-1.253,9.776-2.497c0.427-0.259,1.691-1.045,1.372-2.396C506.367,629.02,504.925,628.643,504.444,628.52z"/>
	<path class="st12" d="M710.461,380.679l33.636-19.932l1.353-17.983c0,0-32.197,16.124-33.276,18.979
		C711.093,364.601,710.461,380.679,710.461,380.679z"/>
	<path class="st5" d="M742.662,358.236c-3.945,2.29-12.157,8.559-16.805,11.612c-4.555,3.187-13.417,8.5-17.004,11.319
		c-0.735,0.607-2.969,2.386-2.148,3.525c0.396,1.346,3.207,0.594,4.148,0.316c4.541-1.223,13.857-6.607,18.568-9.906
		c4.807-3.157,13.258-9.821,16.072-13.586c0.608-0.771,2.346-3.106,1.242-3.973C745.977,356.359,743.498,357.779,742.662,358.236z"
		/>
	<path class="st5" d="M708.852,360.748c-1.289,2.395-2.243,8.258-2.711,11.411c-0.466,3.151-1.255,9.04-0.715,11.706
		c0.114,0.556,0.461,2.217,1.849,2.289c1.35,0.334,2.166-1.153,2.435-1.654c1.292-2.395,2.245-8.258,2.711-11.411
		c0.469-3.151,1.259-9.04,0.719-11.706c-0.114-0.555-0.463-2.216-1.85-2.289C709.939,358.76,709.125,360.247,708.852,360.748z"/>
	<path class="st5" d="M739.481,342.763c-3.466,0.97-10.466,5.006-14.198,7.209c-3.734,2.201-10.652,6.379-13.175,8.944
		c-0.53,0.537-2.093,2.143-1.237,3.244c0.549,1.282,2.712,0.689,3.435,0.487c3.466-0.971,10.469-5.007,14.202-7.208
		c3.732-2.203,10.649-6.381,13.175-8.946c0.526-0.536,2.093-2.143,1.233-3.242C742.371,341.967,740.205,342.56,739.481,342.763z"/>
	<path class="st5" d="M744.358,345.147c-1.364,1.954-2.514,6.927-3.091,9.604c-0.574,2.677-1.564,7.686-1.118,10.027
		c0.092,0.489,0.381,1.95,1.758,2.129c1.328,0.402,2.19-0.813,2.475-1.22c1.367-1.955,2.518-6.929,3.092-9.606
		c0.574-2.676,1.563-7.684,1.12-10.026c-0.094-0.49-0.382-1.951-1.758-2.129C745.506,343.525,744.644,344.738,744.358,345.147z"/>
	<path class="st13" d="M256.402,619.226c2.035-5.089,27.479-32.566,31.549-32.566c4.07,0,22.389,6.107,22.389,6.107l-24.424,37.655
		L256.402,619.226z"/>
	<path class="st5" d="M283.751,586.697c-2.201,0.842-5.598,2.737-8.933,5.052c-3.341,2.3-6.576,5.062-8.709,7.131
		c-2.132,2.065-5.043,5.222-7.382,8.628c-2.365,3.386-4.145,6.96-4.835,9.257c-0.297,0.968-1.032,3.851,0.329,4.202
		c1.165,0.782,2.898-1.464,3.502-2.181c1.444-1.741,3.485-4.755,5.845-7.677c2.334-2.939,4.999-5.77,6.953-7.666
		c1.958-1.896,4.908-4.473,7.902-6.855c2.983-2.395,5.969-4.629,7.633-6.223c0.69-0.664,2.795-2.63,1.885-3.699
		C287.436,585.356,284.677,586.342,283.751,586.697z"/>
	<path class="st5" d="M312.427,590.201c-2.34-1.346-8.132-2.439-11.245-2.979c-3.114-0.542-8.933-1.469-11.59-0.993
		c-0.557,0.1-2.213,0.409-2.32,1.796c-0.366,1.341,1.09,2.19,1.578,2.472c2.34,1.347,8.131,2.438,11.245,2.978
		c3.113,0.542,8.932,1.47,11.589,0.993c0.555-0.099,2.213-0.409,2.318-1.795C314.37,591.332,312.915,590.482,312.427,590.201z"/>
	<path class="st5" d="M283.019,627.931c-2.673-1.698-9.438-3.653-13.076-4.658c-3.638-1.004-10.447-2.8-13.613-2.714
		c-0.663,0.018-2.637,0.082-2.853,1.459c-0.522,1.292,1.142,2.361,1.7,2.716c2.672,1.699,9.437,3.654,13.075,4.659
		c3.64,1.005,10.447,2.8,13.613,2.715c0.663-0.019,2.637-0.083,2.852-1.458C285.24,629.357,283.579,628.286,283.019,627.931z"/>
	<path class="st5" d="M310.029,592.319c-2.047,1.318-5.01,4.007-7.814,7.048c-2.814,3.031-5.442,6.413-7.197,8.825
		c-1.747,2.419-4.142,5.966-6.155,9.568c-2.026,3.595-3.687,7.223-4.336,9.562c-0.288,0.974-1.02,3.901,0.338,4.254
		c1.159,0.796,2.917-1.547,3.532-2.307c1.436-1.851,3.46-5.08,5.623-8.379c2.154-3.305,4.472-6.662,6.139-8.971
		c1.674-2.302,4.144-5.547,6.62-8.606c2.467-3.068,4.927-5.962,6.26-7.879c0.538-0.813,2.257-3.174,1.156-4.053
		C313.464,590.184,310.875,591.748,310.029,592.319z"/>
	<path class="st12" d="M37.731,582.268c5.301-1.39,42.525,2.713,44.946,5.984c2.424,3.274,8.413,21.63,8.413,21.63l-44.799,2.768
		L37.731,582.268z"/>
	<path class="st5" d="M80.148,584.901c-1.987-1.27-5.528-2.872-9.373-4.175c-3.837-1.319-7.982-2.277-10.913-2.758
		c-2.928-0.485-7.198-0.947-11.329-0.801c-4.128,0.112-8.06,0.809-10.317,1.62c-0.957,0.335-3.709,1.463-3.18,2.765
		c0.063,1.401,2.9,1.459,3.834,1.516c2.26,0.126,5.895-0.027,9.648,0.132c3.752,0.129,7.611,0.586,10.301,1.03
		c2.687,0.444,6.516,1.282,10.208,2.271c3.699,0.973,7.273,2.047,9.543,2.434c0.946,0.159,3.777,0.681,4.096-0.687
		C83.42,587.064,80.982,585.433,80.148,584.901z"/>
	<path class="st5" d="M94.394,610.033c-0.311-2.683-2.878-7.987-4.298-10.81c-1.417-2.826-4.131-8.056-6.097-9.907
		c-0.41-0.387-1.644-1.535-2.822-0.798c-1.295,0.504-1.112,2.178-1.048,2.74c0.311,2.681,2.877,7.985,4.294,10.81
		c1.417,2.824,4.134,8.054,6.097,9.907c0.411,0.387,1.644,1.533,2.822,0.796C94.64,612.268,94.458,610.593,94.394,610.033z"/>
	<path class="st5" d="M46.57,608.842c-0.225-3.159-2.679-9.759-4.034-13.283c-1.356-3.522-3.965-10.061-5.917-12.557
		c-0.407-0.521-1.636-2.07-2.869-1.425c-1.348,0.35-1.22,2.322-1.173,2.982c0.224,3.159,2.678,9.759,4.034,13.282
		c1.358,3.523,3.964,10.063,5.916,12.557c0.408,0.522,1.636,2.07,2.87,1.426C46.744,611.473,46.617,609.501,46.57,608.842z"/>
	<path class="st5" d="M91.264,609.366c-2.277-0.861-6.202-1.644-10.314-2.088c-4.11-0.459-8.393-0.557-11.376-0.535
		c-2.984,0.036-7.259,0.221-11.351,0.744c-4.096,0.51-7.999,1.333-10.264,2.205c-0.957,0.346-3.743,1.499-3.219,2.801
		c0.05,1.407,2.977,1.424,3.953,1.467c2.343,0.054,6.144-0.241,10.081-0.464c3.937-0.234,8.015-0.37,10.863-0.405
		c2.847-0.021,6.923,0.033,10.857,0.203c3.931,0.159,7.722,0.412,10.056,0.344c0.976-0.052,3.896-0.074,3.945-1.481
		C95.023,610.856,92.225,609.706,91.264,609.366z"/>
	<path class="st12" d="M725.006,501.867c-0.535-5.089,11.017-32.568,15.091-32.568c4.07,0,18.435,4.417,18.435,4.417l-5.393,37.655
		L725.006,501.867z"/>
	<path class="st5" d="M738.093,466.441c-1.927,1.242-4.534,3.999-6.701,7.217c-2.196,3.206-3.888,6.862-4.88,9.466
		c-1.04,2.589-2.171,6.44-2.74,10.247c-0.591,3.803-0.587,7.533-0.172,9.741c0.17,0.933,0.823,3.642,2.196,3.344
		c1.392,0.14,1.919-2.425,2.136-3.259c0.507-2.025,0.984-5.336,1.768-8.704c0.766-3.37,1.811-6.789,2.74-9.096
		c0.887-2.322,2.346-5.571,4.062-8.534c1.7-2.972,3.596-5.678,4.694-7.399c0.399-0.759,1.896-2.851,0.837-3.786
		C741.331,464.473,738.855,465.861,738.093,466.441z"/>
	<path class="st5" d="M759.175,467.253c-1.924-1.252-6.82-1.97-9.388-2.241c-2.585-0.275-7.273-0.8-9.454-0.218
		c-0.452,0.125-1.813,0.509-1.927,1.892c-0.327,1.349,0.868,2.132,1.272,2.391c1.924,1.252,6.818,1.97,9.388,2.241
		c2.584,0.275,7.273,0.8,9.452,0.216c0.454-0.124,1.815-0.507,1.93-1.889C760.774,468.294,759.579,467.512,759.175,467.253z"/>
	<path class="st5" d="M750.485,508.988c-2.45-1.548-8.636-3.137-11.963-3.945c-3.327-0.808-9.552-2.236-12.441-1.986
		c-0.604,0.053-2.404,0.221-2.592,1.599c-0.466,1.31,1.057,2.286,1.569,2.61c2.451,1.549,8.636,3.136,11.963,3.945
		c3.327,0.808,9.552,2.235,12.441,1.986c0.605-0.053,2.407-0.221,2.595-1.599C752.521,510.287,750.999,509.311,750.485,508.988z"/>
	<path class="st5" d="M758.16,472.426c-1.364,1.611-2.869,4.741-3.906,8.113c-1.056,3.371-1.635,6.947-1.93,9.428
		c-0.726,4.986-0.723,14.212,0.355,18.075c0.214,0.814,0.89,3.215,2.265,2.955c1.389,0.142,1.892-2.266,2.066-3.069
		c0.773-3.859,0.945-12.635,1.616-17.207c0.272-2.297,0.763-5.556,1.453-8.619c0.68-3.068,1.539-5.946,1.966-7.76
		c0.119-0.778,0.773-3.032-0.51-3.61C760.481,469.823,758.676,471.713,758.16,472.426z"/>
	<path class="st12" d="M149.528,307.506c5.11,0.266,30.443,15.978,29.805,19.998c-0.638,4.022-7.248,17.518-7.248,17.518
		l-36.348-11.219L149.528,307.506z"/>
	<path class="st5" d="M182.47,325.972c-0.923-2.099-3.238-5.103-6.077-7.75c-2.826-2.669-6.17-4.91-8.587-6.298
		c-2.395-1.432-6.022-3.154-9.693-4.312c-3.662-1.176-7.347-1.758-9.593-1.691c-0.948,0.018-3.726,0.243-3.646,1.643
		c-0.355,1.354,2.093,2.275,2.883,2.62c1.921,0.818,5.115,1.807,8.32,3.11c3.21,1.283,6.424,2.85,8.555,4.128
		c2.155,1.238,5.135,3.188,7.794,5.346c2.67,2.143,5.043,4.439,6.573,5.793c0.688,0.515,2.518,2.317,3.607,1.421
		C183.908,329.478,182.924,326.815,182.47,325.972z"/>
	<path class="st5" d="M178.371,346.667c1.536-1.704,3.011-6.426,3.682-8.921c0.676-2.509,1.927-7.058,1.694-9.302
		c-0.052-0.469-0.219-1.873-1.566-2.202c-1.281-0.533-2.24,0.525-2.56,0.884c-1.538,1.705-3.014,6.425-3.685,8.921
		c-0.676,2.509-1.927,7.058-1.694,9.302c0.052,0.468,0.219,1.873,1.566,2.201C177.09,348.086,178.049,347.027,178.371,346.667z"/>
	<path class="st5" d="M138.508,331.556c1.913-2.179,4.449-8.039,5.77-11.199c1.319-3.159,3.702-9.083,3.906-11.977
		c0.044-0.604,0.161-2.409-1.173-2.811c-1.223-0.665-2.423,0.688-2.822,1.142c-1.914,2.179-4.45,8.041-5.77,11.2
		c-1.32,3.159-3.701,9.084-3.907,11.976c-0.041,0.604-0.158,2.411,1.173,2.812C136.907,333.364,138.109,332.012,138.508,331.556z"/>
	<path class="st5" d="M173.42,344.856c-1.379-1.6-4.234-3.576-7.4-5.129c-3.167-1.571-6.607-2.703-9.011-3.381
		c-4.813-1.495-13.924-2.938-17.911-2.475c-0.838,0.083-3.313,0.374-3.271,1.773c-0.358,1.352,1.943,2.223,2.706,2.521
		c3.693,1.368,12.332,2.909,16.744,4.289c2.226,0.628,5.368,1.622,8.284,2.785c2.925,1.151,5.634,2.447,7.359,3.155
		c0.749,0.238,2.872,1.239,3.646,0.06C175.626,347.556,174.044,345.477,173.42,344.856z"/>
	<path class="st13" d="M163.23,162.552c1.131-4.99,20.925-27.279,24.778-25.968c3.854,1.313,16.029,10.122,16.029,10.122
		l-17.24,33.909L163.23,162.552z"/>
	<path class="st5" d="M186.367,133.25c-2.082,0.492-5.259,2.099-8.168,4.277c-2.928,2.16-5.534,4.845-7.226,6.787
		c-3.537,3.815-8.648,11.79-9.834,15.704c-0.264,0.817-1.004,3.252,0.299,3.764c1.098,0.866,2.834-0.943,3.419-1.542
		c2.75-2.919,7.713-10.336,10.899-13.75c1.536-1.765,3.826-4.177,6.221-6.259c2.385-2.1,4.861-3.884,6.333-5.109
		c0.582-0.543,2.512-1.987,1.827-3.214C189.839,132.544,187.232,132.998,186.367,133.25z"/>
	<path class="st5" d="M205.789,143.41c-1.383-1.764-5.057-4.394-7.134-6.093c-2.016-1.67-6.485-4.652-8.888-4.844
		c-0.502-0.055-1.974-0.19-2.518,1.09c-0.734,1.176,0.114,2.31,0.391,2.681c1.383,1.764,5.055,4.394,7.131,6.092
		c2.016,1.67,6.486,4.653,8.889,4.844c0.502,0.055,1.974,0.19,2.517-1.089C206.912,144.916,206.063,143.782,205.789,143.41z"/>
	<path class="st5" d="M185.056,177.503c-1.821-2.255-7.167-5.751-10.056-7.589c-2.889-1.837-8.32-5.195-11.137-5.887
		c-0.588-0.145-2.346-0.567-2.97,0.678c-0.862,1.091,0.266,2.505,0.646,2.977c1.821,2.255,7.164,5.753,10.056,7.589
		c2.89,1.838,8.32,5.195,11.135,5.889c0.591,0.144,2.348,0.565,2.972-0.678C186.564,179.39,185.436,177.975,185.056,177.503z"/>
	<path class="st5" d="M202.983,145.276c-1.815,1.075-4.277,3.515-6.413,6.329c-2.149,2.808-3.942,5.97-5.082,8.209
		c-2.428,4.437-5.617,13.192-5.858,17.239c-0.069,0.845-0.214,3.357,1.17,3.551c1.272,0.58,2.529-1.539,2.955-2.238
		c1.982-3.396,5.146-11.584,7.383-15.659c1.057-2.072,2.656-4.973,4.372-7.637c1.702-2.671,3.499-5.119,4.511-6.708
		c0.374-0.698,1.739-2.635,0.71-3.591C206.025,143.57,203.707,144.774,202.983,145.276z"/>
	<path class="st11" d="M720.789,608.204c5.04-0.882,33.242,8.771,33.52,12.833c0.277,4.062-3.15,18.694-3.15,18.694l-37.934-2.813
		L720.789,608.204z"/>
	<path class="st5" d="M756.752,618.235c-1.259-1.731-3.968-4.04-7.098-5.883c-3.125-1.868-6.61-3.236-9.052-4.045
		c-4.885-1.793-14.215-3.425-18.282-3.01c-0.857,0.074-3.388,0.33-3.358,1.729c-0.374,1.348,1.966,2.251,2.742,2.559
		c3.757,1.412,12.512,3.127,16.893,4.746c2.222,0.735,5.33,1.917,8.177,3.324c2.859,1.388,5.459,2.983,7.156,3.866
		c0.726,0.329,2.803,1.552,3.67,0.445C758.743,621.166,757.317,618.935,756.752,618.235z"/>
	<path class="st5" d="M754.877,640.072c1.093-1.958,2.102-6.359,2.867-8.931c0.76-2.505,1.788-7.778,1.036-10.07
		c-0.144-0.485-0.587-1.895-1.979-1.902c-1.366-0.224-2.085,0.996-2.324,1.395c-1.089,1.956-2.101,6.359-2.864,8.931
		c-0.762,2.504-1.788,7.778-1.036,10.07c0.141,0.483,0.585,1.895,1.977,1.9C753.92,641.692,754.642,640.47,754.877,640.072z"/>
	<path class="st5" d="M715.422,634.109c1.378-2.552,2.539-8.831,3.121-12.205c0.579-3.376,1.578-9.681,1.131-12.547
		c-0.094-0.599-0.385-2.385-1.772-2.479c-1.339-0.374-2.209,1.212-2.497,1.745c-1.378,2.552-2.54,8.831-3.119,12.205
		c-0.579,3.375-1.58,9.681-1.131,12.547c0.094,0.599,0.382,2.384,1.772,2.479C714.265,636.229,715.136,634.643,715.422,634.109z"/>
	<path class="st5" d="M752.072,638.205c-1.691-1.26-4.894-2.59-8.313-3.471c-3.421-0.899-7.031-1.331-9.535-1.522
		c-5.032-0.525-14.337-0.085-18.166,1.254c-0.806,0.263-3.177,1.097-2.822,2.45c-0.044,1.397,2.396,1.739,3.206,1.863
		c3.898,0.517,12.673,0.273,17.294,0.763c2.318,0.175,5.612,0.532,8.731,1.085c3.125,0.541,6.075,1.251,7.933,1.572
		c0.787,0.075,3.102,0.588,3.587-0.733C754.822,640.352,752.814,638.679,752.072,638.205z"/>
	<path class="st12" d="M418.35,485.329c3.702-2.282,29.001-3.533,30.495-0.413c1.498,3.118,3.396,15.745,3.396,15.745l-30.831,9.711
		L418.35,485.329z"/>
	<path class="st5" d="M449.702,479.422c-1.533-1.054-4.425-2.119-7.556-2.647c-3.125-0.553-6.432-0.513-8.7-0.296
		c-2.277,0.173-5.506,0.751-8.456,1.777c-2.959,1.001-5.606,2.419-7.009,3.574c-0.594,0.496-2.262,2.009-1.442,3.142
		c0.51,1.294,2.598,0.893,3.283,0.777c1.672-0.258,4.208-1.073,6.862-1.701c2.647-0.65,5.404-1.102,7.336-1.247
		c1.932-0.184,4.702-0.256,7.369-0.039c2.667,0.197,5.232,0.636,6.879,0.747c0.688,0.008,2.758,0.248,3.177-1.087
		C452.184,481.241,450.368,479.831,449.702,479.422z"/>
	<path class="st5" d="M457.74,498.682c0.382-1.977-0.86-6.01-1.594-8.076c-0.74-2.082-2.068-5.847-3.449-7.26
		c-0.288-0.293-1.168-1.168-2.468-0.688c-1.353,0.303-1.597,1.534-1.674,1.949c-0.385,1.977,0.857,6.011,1.594,8.077
		c0.737,2.081,2.065,5.846,3.449,7.259c0.288,0.292,1.168,1.168,2.468,0.689C457.418,500.327,457.662,499.096,457.74,498.682z"/>
	<path class="st5" d="M422.581,507.397c0.422-2.477-0.624-7.802-1.228-10.647c-0.603-2.845-1.811-8.137-3.2-10.229
		c-0.291-0.436-1.167-1.736-2.495-1.331c-1.38,0.169-1.653,1.714-1.742,2.23c-0.421,2.476,0.624,7.801,1.229,10.647
		c0.604,2.846,1.81,8.137,3.199,10.229c0.291,0.436,1.167,1.736,2.498,1.331C422.221,509.459,422.495,507.914,422.581,507.397z"/>
	<path class="st5" d="M453.828,502.318c-1.639-0.557-4.456-0.808-7.361-0.673c-2.911,0.119-5.883,0.65-7.921,1.129
		c-2.043,0.454-4.927,1.304-7.578,2.431c-2.656,1.114-5.065,2.498-6.341,3.627c-0.538,0.477-2.073,1.931-1.27,3.071
		c0.51,1.294,2.506,0.93,3.166,0.823c3.158-0.606,9.757-3.053,13.461-3.77c1.829-0.428,4.466-0.938,7.034-1.302
		c2.567-0.374,5.065-0.634,6.61-1.008c0.637-0.185,2.592-0.596,2.581-1.993C456.525,503.296,454.523,502.522,453.828,502.318z"/>
	<path class="st13" d="M655.861,181.932c2.265-3.711,24.255-16.281,27.002-14.18c2.748,2.104,10.156,12.503,10.156,12.503
		l-23.087,22.618L655.861,181.932z"/>
	<path class="st5" d="M681.139,162.469c-1.844-0.245-4.905,0.115-7.933,1.062c-3.039,0.924-5.969,2.455-7.894,3.675
		c-1.952,1.185-4.569,3.165-6.734,5.415c-2.185,2.232-3.904,4.694-4.633,6.361c-0.303,0.71-1.107,2.815,0.138,3.453
		c1.042,0.924,2.72-0.381,3.28-0.793c1.375-0.987,3.266-2.862,5.348-4.624c2.065-1.779,4.32-3.43,5.975-4.434
		c1.638-1.037,4.075-2.357,6.551-3.371c2.467-1.034,4.951-1.802,6.471-2.45c0.618-0.303,2.573-1.027,2.342-2.408
		C684.175,162.968,681.917,162.533,681.139,162.469z"/>
	<path class="st5" d="M697.025,176.001c-0.552-1.937-3.485-4.969-5.077-6.479c-1.602-1.521-4.491-4.276-6.363-4.912
		c-0.39-0.129-1.569-0.511-2.512,0.505c-1.07,0.884-0.729,2.092-0.609,2.497c0.552,1.937,3.485,4.97,5.077,6.479
		c1.602,1.521,4.491,4.276,6.362,4.912c0.391,0.129,1.57,0.512,2.513-0.505C697.485,177.613,697.145,176.406,697.025,176.001z"/>
	<path class="st5" d="M669.627,199.692c-0.746-2.398-4.089-6.673-5.917-8.936c-1.827-2.265-5.299-6.435-7.486-7.67
		c-0.458-0.258-1.828-1.02-2.828-0.057c-1.153,0.774-0.698,2.275-0.54,2.776c0.745,2.398,4.086,6.673,5.913,8.936
		c1.828,2.265,5.298,6.435,7.486,7.67c0.458,0.258,1.827,1.02,2.828,0.057C670.236,201.693,669.782,200.193,669.627,199.692z"/>
	<path class="st5" d="M695.184,181.014c-1.713,0.246-4.336,1.298-6.867,2.734c-2.54,1.424-4.953,3.243-6.552,4.591
		c-1.617,1.333-3.804,3.395-5.656,5.601c-1.863,2.198-3.385,4.52-4.012,6.104c-0.26,0.669-0.973,2.662,0.261,3.313
		c1.043,0.924,2.654-0.305,3.194-0.7c2.543-1.97,7.317-7.139,10.294-9.454c1.439-1.212,3.558-2.861,5.684-4.347
		c2.119-1.499,4.228-2.86,5.438-3.893c0.484-0.453,2.041-1.706,1.397-2.946C698.032,180.665,695.896,180.883,695.184,181.014z"/>
</g>
</svg>
