<?xml version="1.0" encoding="utf-8"?>
<!-- Generator: Adobe Illustrator 22.1.0, SVG Export Plug-In . SVG Version: 6.00 Build 0)  -->
<svg version="1.1" id="_x31__1_" xmlns="http://www.w3.org/2000/svg" xmlns:xlink="http://www.w3.org/1999/xlink" x="0px" y="0px"
	 viewBox="0 0 850 815" style="enable-background:new 0 0 850 815;" xml:space="preserve">
<style type="text/css">
	.st0{fill:#E5B267;}
	.st1{fill:#FFFFFF;}
	.st2{fill:#FF9345;}
	.st3{fill:#4D261E;}
	.st4{fill:#4D251D;}
</style>
<g>
	<path class="st0" d="M306.634,294.239C265.452,251.9,317.263,127.376,414.241,88.773c14.613-39.848,49.155-75.961,70.412-77.206
		c21.255-1.244,27.898,9.963,19.927,32.375c-7.971,22.416,0,37.358,0,37.358l81.038-7.47c0,0,30.556-59.773,58.454-53.547
		c27.899,6.226,14.613,63.508,23.914,75.961c9.3,12.452,74.395,31.131,95.651,85.921c21.257,54.791,6.643,74.715-21.255,100.866
		c-27.898,26.149-69.082,46.073-69.082,51.056c0,4.98-14.614,36.112-13.284,65.998c1.329,29.886-2.659,62.261,23.913,37.356
		c26.569-24.905,17.269-59.772,33.211-75.961c15.943-16.186,54.47-21.167,51.811,22.416c-2.655,43.582-11.956,109.58-41.182,128.259
		c-29.227,18.679-47.827,18.679-62.44,3.737c-14.614-14.944-28.304-22.522-28.304-22.522s-31.48,76.067-73.99,109.689
		c-42.512,33.623-39.854,34.867-41.183,38.602c-1.329,3.737,13.284,62.263-18.599,93.395c-31.884,31.13-57.125,41.092-54.468,13.696
		c2.656-27.396,11.956-78.45,11.956-78.45s-34.54-8.716-39.853,4.982c3.984,39.847-15.943,97.128-49.156,110.827
		c-33.211,13.697-53.14-11.208-41.182-36.112c11.956-24.905,21.255-49.81-1.329-67.245c-22.585-17.433-54.469-14.943-96.98-44.828
		c-42.512-29.886-43.841-78.451-43.841-78.451s-91.665,9.963-120.892,23.66c-29.226,13.698-65.097-9.96-19.928-38.602
		c45.169-28.64,119.564-37.356,119.564-37.356s-49.154-51.056-49.154-104.602c0-53.545,23.914-83.431,43.84-82.187
		c19.927,1.246,33.211,12.453,13.284,42.339c-19.927,29.886,1.329,78.45,11.956,94.638c10.629,16.189,14.613,24.905,14.613,17.435
		c0-7.472,51.811-99.621,67.754-124.526C285.378,325.37,306.634,294.239,306.634,294.239z"/>
	<path class="st1" d="M619.548,200.439c-22.414,12.929-48.277,11.313-75.862,1.616c-27.586-9.697-70.688,37.17-44.828,72.724
		c17.375,23.887,37.931,74.341,20.69,96.966c-17.241,22.625,20.689-4.848,41.378,24.241c20.689,29.09,6.897,79.188-15.517,95.348
		c-22.414,16.161-45.831,22.874-56.897,50.098c-13.792,33.94,18.967,63.029,65.518,42.02c46.55-21.011,74.136-88.885,74.136-126.056
		c0-37.17,6.898-95.348,22.414-122.822c15.518-27.475,62.069-69.492,63.793-114.743c1.725-45.25-22.412-37.17-32.758-25.857
		C671.271,205.288,655.754,205.288,619.548,200.439z"/>
	<path class="st2" d="M608.153,262.873c0,26.951,5.391,58.956,21.564,40.426c16.173-18.528,14.377-50.532,14.377-50.532
		l-14.377-8.422L608.153,262.873z"/>
	<path class="st3" d="M381.46,95.831c-5.888,1.993-13.497,5.417-21.473,10.46c-7.987,5.013-16.314,11.618-23.913,19.237
		c-7.619,7.602-14.496,16.199-20.079,24.743c-5.611,8.54-9.905,17.002-13.028,24.089c-6.441,14.1-12.793,35.567-14.5,56.816
		c-0.927,10.6-0.817,21.076,0.121,30.335c0.989,9.298,2.505,17.203,4.496,23.327c0.813,2.521,2.715,7.696,5.648,11.518
		c2.891,3.895,6.51,5.867,7.967,3.978c2.203-0.907,1.695-4.294,1.403-8c-0.381-3.713-0.745-8.062-0.858-10.34
		c-0.499-10.954-1.42-29.764,1.226-48.669c2.399-18.984,8.183-38.004,13.872-50.443c2.761-6.26,6.496-13.691,11.289-21.238
		c4.774-7.56,10.595-15.23,16.962-22.188c6.354-6.974,13.243-13.221,19.776-18.342c6.525-5.147,12.68-9.145,17.326-12.257
		c0.98-0.628,2.447-1.572,4.069-2.702c1.651-1.048,3.472-2.249,5.098-3.522c3.301-2.374,5.933-4.982,4.684-7.002
		c-0.091-2.393-3.807-2.901-8.253-2.552c-2.184,0.258-4.54,0.704-6.656,1.197C384.556,94.848,382.703,95.436,381.46,95.831z"/>
	<path class="st3" d="M702.292,326.058c13.914-8.331,36.19-23.839,55.683-45.325c9.615-10.773,18.812-23.145,23.498-38.027
		c1.348-3.7,1.844-7.281,2.579-10.802c0.364-3.549,0.908-7.016,0.859-10.377c0.291-6.739-0.554-12.939-1.436-18.454
		c-2.115-10.935-6.549-23.796-13.988-35.895c-3.612-6.117-7.929-12.048-12.74-17.644c-2.35-2.852-4.963-5.488-7.531-8.165
		c-2.689-2.556-5.391-5.152-8.09-7.424c-10.774-9.418-22.461-17.495-33.332-23.683c-10.907-6.147-20.882-10.568-28.502-13.392
		c-6.375-2.478-25.408-8.766-25.732-3.84c-3.329,3.548,13.908,13.336,19.437,16.837c6.721,4.101,15.651,9.345,25.284,15.789
		c9.597,6.492,19.821,14.306,29.438,23.289c4.875,4.455,9.197,8.935,13.194,13.87c4.003,4.852,7.579,9.929,10.523,15.066
		c6.119,10.188,9.548,20.553,11.224,29.056c0.654,4.271,1.349,9.033,1.125,14.077c0.081,2.54-0.37,5.097-0.574,7.754
		c-0.561,2.573-0.878,5.373-1.807,7.801c-1.323,5.061-4.222,10.353-7.275,15.619c-3.381,5.2-7.09,10.43-11.342,15.346
		c-16.809,19.885-37.277,36.351-48.957,46.817c-4.842,4.448-20.071,16.95-16.258,19.895
		C678.693,339.107,696.481,329.616,702.292,326.058z"/>
	<path class="st3" d="M513.809,68.198c1.043-4.553,1.755-10.58,2.093-17.414c0.158-3.422,0.248-7.037,0.192-10.824
		c-0.157-3.848,0.069-7.426-1.226-13.133c-1.294-5.114-3.693-9.914-7.168-14.063c-3.474-4.123-8.202-7.566-13.619-9.351
		c-5.46-1.789-11.068-1.72-15.644-0.673c-4.62,1.026-8.254,2.776-11.228,4.427c-2.954,1.678-5.899,3.719-8.704,5.931
		c-1.41,1.112-2.857,2.388-4.336,3.637c-1.378,1.304-2.792,2.64-4.23,4.002c-5.521,5.547-10.677,11.824-15.315,18.186
		c-9.277,12.723-16.462,25.811-19.737,34.254c-1.426,3.512-5.143,14.145-0.62,15.549c3.605,2.971,10.563-5.42,13.008-8.124
		c5.74-6.564,14.032-18.206,23.26-29.364c4.598-5.573,9.427-11.022,14.11-15.532c1.18-1.076,2.338-2.135,3.469-3.168
		c1.151-0.945,2.274-1.867,3.361-2.758c2.293-1.779,4.352-3.16,6.144-4.181c3.658-2.095,7.366-3.096,10.03-2.21
		c1.414,0.425,2.981,1.362,4.436,2.914c1.438,1.557,2.66,3.646,3.37,5.814c0.612,1.617,1.016,5.59,1.386,8.953
		c0.335,3.485,0.66,6.86,0.967,10.049c0.574,6.406,1.059,12.044,1.584,16.236c0.203,1.739,0.642,5.236,1.322,8.12
		c0.736,2.868,1.606,5.265,3.881,5.775c1.962,1.369,4.561-0.956,6.189-4.177C512.475,73.893,513.356,70.106,513.809,68.198z"/>
	<path class="st3" d="M599.455,69.536c-10.401-2.347-34.078-0.924-46.766-0.01c-12.684,0.91-36.323,2.884-46.282,6.695
		c-2.081,0.794-8.28,3.207-7.419,7.771c-0.2,4.64,6.279,6.143,8.454,6.632c10.401,2.349,34.081,0.925,46.766,0.013
		c12.685-0.91,36.323-2.886,46.282-6.696c2.081-0.796,8.28-3.209,7.422-7.772C608.109,71.529,601.63,70.027,599.455,69.536z"/>
	<path class="st3" d="M673.082,88.225c0.073-4.287-0.075-9.951-0.258-16.428c-0.095-3.255-0.195-6.704-0.299-10.264
		c-0.059-1.8-0.118-3.625-0.178-5.47l-0.104-2.81l-0.059-1.42l-0.111-1.659c-0.668-8.793-3.017-18.111-8.967-26.268
		c-2.996-4.02-7.122-7.52-11.624-9.651c-4.482-2.154-9.1-3.017-13.177-3.034c-8.299-0.132-16.97,3.421-23.874,8.358
		c-3.505,2.475-6.747,5.289-9.743,8.287c-2.816,2.871-5.581,5.862-8.161,8.959C586.1,49.174,578.784,63.081,576.142,72.02
		c-0.589,1.855-1.641,5.599-1.819,8.983c-0.194,3.387,0.448,6.351,2.76,6.739c3.958,2.374,9.735-6.555,11.98-9.271
		c5.03-6.787,12.792-18.094,22.537-28.319c2.415-2.567,4.95-5.058,7.494-7.466c2.409-2.234,4.862-4.221,7.248-5.831
		c4.806-3.268,9.129-4.552,11.823-4.465c2.836,0.082,5.592,0.953,8.256,4.242c2.681,3.382,4.862,9.346,5.63,15.525
		c0.423,3.681,0.843,7.331,1.247,10.868c0.451,3.653,0.954,7.206,1.516,10.558c1.13,6.709,2.512,12.616,4.015,16.976
		c1.085,3.687,5.63,14.415,9.914,12.208C673.328,102.36,672.86,91.834,673.082,88.225z"/>
	<path class="st3" d="M412.857,702.947c-0.948,8.441-2.887,18.193-6.561,28.46c-3.658,10.22-9.037,21.102-16.46,31.15
		c-3.477,4.567-7.947,8.885-12.97,12.444c-5.045,3.459-10.728,6.215-16.173,7.224c-2.714,0.479-5.267,0.441-7.598,0.082
		c-2.24-0.587-4.298-1.401-6.154-2.855c-3.625-2.675-5.583-7.1-6.107-13.018c-0.245-2.917-0.093-6.081,0.379-9.289
		c0.479-3.278,1.26-6.297,2.356-9.904c2.106-7.071,4.959-14.681,6.633-23.46c0.811-4.392,1.276-9.116,0.98-13.998
		c-0.27-4.88-1.426-9.86-3.226-14.364c-3.622-9.132-9.756-16.17-16.117-21.823c-6.48-5.573-13.432-9.839-20.471-13.234
		c-7.059-3.365-13.839-5.794-20.323-8.009c-12.935-4.323-24.372-7.788-33.519-12.225c-9.014-4.519-18.393-10.717-26.731-19.365
		c-8.357-8.585-15.644-19.456-21.011-31.875c-10.766-24.786-13.943-55.646-7.356-83.794c3.277-14.071,8.572-28.138,14.302-41.485
		c5.836-13.35,12.071-26.117,18.272-38.033c12.478-23.811,24.659-44.244,33.868-59.547c3.891-6.379,11.627-19.065,18.169-29.792
		c6.47-10.774,11.67-19.694,8.681-19.728c-0.579-2.893-8.433,4.079-16.894,13.681c-8.449,9.593-17.595,21.659-21.991,27.854
		c-10.674,14.725-24.102,34.886-37.732,58.882c-6.779,12.021-13.579,25.018-19.994,38.851
		c-6.314,13.895-12.255,28.621-16.275,44.741c-7.98,32.299-4.806,67.41,7.676,96.676c6.235,14.635,14.911,27.756,25.094,38.258
		c10.142,10.573,21.753,18.299,32.803,23.777c11.101,5.347,23.579,9.035,35.873,13.145c12.331,4.109,24.327,8.886,33.816,17.082
		c4.609,4.054,8.54,8.725,10.53,13.785c2.06,4.996,2.393,10.346,1.241,16.841c-1.131,6.452-3.608,13.532-5.893,21.392
		c-2.399,7.999-4.12,17.276-3.176,26.817c0.476,4.797,1.653,9.803,3.994,14.587c2.293,4.785,5.937,9.208,10.27,12.345
		c4.259,3.202,9.39,5.279,14.53,6.292c5.156,0.795,10.188,0.572,14.803-0.364c9.199-1.977,16.815-6.17,23.442-10.959
		c6.545-4.923,12.118-10.618,16.674-17.044c16.69-24.386,22.329-50.264,22.752-69.192c0.332-7.928-0.448-23.892-4.646-36.496
		c-3.898-12.692-9.794-21.669-11.103-19.037c-2.906-0.793-0.26,9.113,1.13,21.167C414.348,681.651,413.746,695.913,412.857,702.947z
		"/>
	<path class="st3" d="M546.654,623.54c14.021-9.314,33.666-29.169,50.819-52.005c17.264-22.799,31.775-48.58,40.933-66.985
		c8.984-18.49,20.616-45.641,28.461-73.049c7.989-27.336,12.423-54.721,12.141-71.449c0.019-1.738,0.118-4.323,0.027-7.215
		c-0.231-2.911-0.554-6.112-1.014-9.026c-0.922-5.838-2.385-10.482-4.726-9.625c-2.274-0.819-4.1,3.753-5.466,9.235
		c-0.681,2.745-1.247,5.732-1.696,8.436c-0.6,2.702-1.136,5.123-1.495,6.743c-2.707,15.521-8.527,41.13-17.005,66.997
		c-8.346,25.925-19.613,51.876-28.213,69.594c-8.78,17.633-22.533,42.334-38.208,64.497c-15.583,22.201-32.771,41.923-43.966,52.896
		c-1.144,1.175-2.727,3.114-4.669,5.041c-1.967,1.889-4.102,4.034-5.978,6.141c-3.739,4.209-6.489,8.301-4.547,9.727
		c0.598,2.425,5.251,1.02,10.608-1.526c2.671-1.269,5.506-2.816,8.05-4.279C543.223,626.191,545.221,624.542,546.654,623.54z"/>
	<path class="st3" d="M445.657,670.498c1.506,0.078,3.123,0.208,4.808,0.495c0.847,0.107,1.704,0.297,2.579,0.486
		c0.538,0.129,0.568,0.25,0.849,0.369c0.431,0.259,0.792,0.508,1.065,0.789c0.12,0.352-0.363,0.962-0.476,1.31
		c0.012-0.649-0.871,3.236-1.48,5.796c-0.645,2.777-1.303,5.617-1.973,8.501c-1.29,5.783-2.62,11.747-3.963,17.767
		c-1.294,6.029-2.6,12.112-3.888,18.117c-0.63,3.005-1.257,5.989-1.874,8.94c-0.611,2.945-1.322,6.329-1.621,10.029
		c-0.303,3.68-0.256,7.901,1.075,12.388c1.307,4.503,4.148,8.885,7.865,11.871c3.678,2.945,7.644,4.496,11.3,5.303
		c3.677,0.774,7.146,0.875,10.396,0.508c6.755-0.729,12.961-3.618,18.327-7.381c2.66-1.876,5.119-3.941,7.4-6.05
		c2.224-2.146,4.402-4.415,6.659-6.702c8.729-9.426,16.242-21.151,21.441-33.538c5.241-12.376,8.122-25.387,8.826-37.074
		c0.758-11.705-0.673-22.007-2.572-29.433c-0.439-1.551-1.097-3.862-1.907-6.388c-0.995-2.49-2.171-5.191-3.391-7.573
		c-2.78-4.689-5.734-8-7.611-6.431c-2.39,0.176-2.572,4.55-2.154,9.367c0.046,2.47,0.266,5.073,0.517,7.401
		c0.065,2.371,0.191,4.461,0.279,5.855c0.216,6.69,0.326,15.526-1.165,25.371c-1.443,9.826-4.464,20.598-9.224,30.771
		c-4.728,10.179-11.141,19.741-18.419,27.395c-1.874,1.849-3.716,3.664-5.514,5.435c-1.843,1.68-3.598,3.105-5.265,4.27
		c-3.268,2.3-6.41,3.475-8.555,3.666c-2.347,0.35-5.193-0.379-6.067-1.193c-0.391-0.353-0.714-0.7-0.999-1.572
		c-0.29-0.892-0.488-2.512-0.319-4.647c0.288-4.091,1.805-10.614,2.842-16.552c1.111-6.042,2.234-12.159,3.349-18.225
		c1.066-6.074,2.122-12.093,3.143-17.928c1.116-6.651,2.195-13.089,3.213-19.168c0.213-1.224,0.424-2.436,0.636-3.64
		c0.097-1.128,0.195-2.245,0.292-3.353c0.09-1.095,0.181-2.18,0.268-3.257l0.13-1.593c-0.348-0.306-1.018-0.425-1.508-0.644
		c-4.263-1.59-8.103-2.977-12.099-3.912c-1.982-0.294-4.106-0.792-5.762-0.867c-1.304-0.081-2.566-0.141-3.789-0.095
		c-2.441,0.014-4.708,0.264-6.766,0.615c-1.721,0.261-4.27,0.855-6.993,1.776c-2.708,0.987-5.584,2.316-7.953,3.97
		c-4.833,3.277-7.293,7.391-5.309,8.737c0.811,2.303,4.821,1.247,9.285,0.653C438.068,670.516,443.134,670.3,445.657,670.498z"/>
	<path class="st3" d="M494.604,448.208c4.064-5.502,7.366-12.539,10.153-19.973c2.851-7.421,5.267-15.266,9.005-22.004
		c3.722-6.842,8.857-12.72,15.137-15.233c6.033-2.513,13.966-1.854,20.993,1.688c3.485,1.765,6.699,4.17,9.275,6.959
		c0.672,0.679,1.186,1.453,1.808,2.153c0.498,0.783,1.035,1.469,1.518,2.309c0.962,1.698,1.881,3.423,2.536,5.289
		c2.851,7.347,3.148,15.932,1.851,24.146c-1.305,8.215-4.292,16.159-7.767,23.238c-3.512,7.08-7.698,13.318-11.923,18.637
		c-8.381,10.684-20.848,22.267-36.285,32.133c-7.654,4.939-15.885,9.312-24.408,12.181c-8.509,2.865-17.274,4.117-25.428,2.789
		c-8.201-1.203-16.012-5.036-23.016-10.192c-7.02-5.158-13.234-11.536-18.76-18.032c-11.118-13.206-19.989-26.009-26.429-35.629
		c-2.671-4.082-7.983-12.19-12.492-19.074c-4.579-6.871-8.676-12.448-10.332-10.416c-2.597-0.246-1.495,6.704,1.145,14.843
		c2.619,8.134,6.884,17.329,9.173,21.87c5.432,10.936,13.581,24.892,24.858,39.78c5.731,7.46,12.529,15.174,21.135,21.984
		c8.529,6.762,19.259,12.62,31.36,14.703c12.093,2.232,24.402,0.499,35.196-2.979c10.868-3.5,20.57-8.625,29.26-14.125
		c17.392-10.927,31.721-24.097,41.614-36.696c9.88-12.532,20.223-29.861,23.836-51.819c1.619-10.883,1.332-23.152-3.337-34.863
		c-1.105-2.924-2.596-5.733-4.224-8.447c-0.822-1.362-1.842-2.728-2.788-4.06c-1.058-1.237-2.058-2.55-3.199-3.692
		c-4.48-4.676-9.724-8.389-15.432-11.11c-5.703-2.723-11.963-4.355-18.409-4.701c-6.424-0.333-13.132,0.729-19.085,3.476
		c-5.868,2.676-10.841,6.671-14.632,11.03c-3.837,4.363-6.641,9.039-8.86,13.613c-4.456,9.293-6.386,17.895-8.533,24.973
		c-2.051,7.132-4.182,12.944-6.639,17.399c-1.794,3.653-7.09,10.474-13.199,14.13c-5.896,3.89-12.388,4.225-11.602,6.713
		c-0.77,1.04,0.467,2.305,3.38,3.149c2.883,0.848,7.444,0.892,12.157-0.454c4.681-1.359,9.42-3.953,13.112-6.993
		C490.071,453.9,492.899,450.584,494.604,448.208z"/>
	<path class="st3" d="M685.508,451.791c1.568-0.592,3.231-1.376,4.684-2.295c1.542-0.85,3.034-1.908,4.508-3.119
		c2.902-2.415,5.721-5.436,7.868-8.941c4.468-6.991,6.882-15.281,8.298-23.554c0.725-4.156,1.228-8.362,1.652-12.539
		c0.209-1.965,0.42-3.952,0.633-5.96c0.254-1.888,0.546-3.773,0.905-5.64c1.423-7.413,4.029-14.714,7.978-19.372
		c3.794-4.633,9.062-6.532,14.499-5.796c5.534,0.756,11.411,4.465,15.042,9.15c0.935,1.174,1.673,2.336,2.354,3.615
		c0.693,1.373,1.349,2.757,1.836,4.232c1.047,2.904,1.701,6,2.061,9.164c0.737,6.326,0.389,12.814-0.203,18.83
		c-1.21,12.179-3.772,26.97-8.387,42.418c-4.701,15.431-10.804,31.886-20.228,44.327c-4.75,6.264-10.214,11.402-16.414,15.167
		c-6.172,3.789-12.848,6.161-19.158,6.96c-3.156,0.401-6.232,0.453-9.136,0.121c-2.928-0.362-5.962-1.017-8.857-1.832
		c-5.81-1.611-10.994-3.754-15.265-5.74c-3.602-1.621-10.493-5.447-15.029-9.496c-2.351-2.012-3.722-4.014-5.01-5.599
		c-0.908-1.554-1.995-2.842-3.11-2.397c-1.156-0.624-2.154,0.501-2.771,3.416c-0.278,2.763,0.542,7.084,2.777,10.757
		c4.341,7.511,12.058,13.287,15.934,15.831c4.688,3.108,10.371,6.266,17.23,8.875c3.431,1.306,7.177,2.486,11.435,3.332
		c4.291,0.82,8.84,1.056,13.447,0.755c9.231-0.609,18.624-3.512,27.205-8.315c8.626-4.756,16.424-11.696,22.586-19.461
		c6.234-7.804,11.029-16.452,14.914-25.047c3.875-8.625,6.914-17.136,9.536-25.575c5.195-16.853,8.036-33.016,9.365-46.411
		c0.648-6.758,1.162-14.596,0.12-23.439c-0.523-4.407-1.492-9.072-3.206-13.764c-0.814-2.352-1.894-4.686-3.096-6.983
		c-1.271-2.365-2.813-4.724-4.528-6.831c-6.862-8.428-16.684-14.924-28.808-16.561c-5.981-0.737-12.649,0.054-18.295,2.503
		c-5.803,2.373-10.847,6.514-14.45,11.097c-14.168,18.825-11.658,40.17-13.466,53.582c-0.774,7.135-2.268,13.269-4.615,17.811
		c-1.119,2.331-2.547,4.137-4.019,5.744c-0.747,0.79-1.515,1.523-2.356,2.133c-0.814,0.712-1.538,1.182-2.324,1.645
		c-1.956,1.242-6.17,2.705-9.271,1.91c-2.149-0.282-4.329-2.696-4.949-4.557c-0.853-1.835-0.292-3.934-1.739-4.452
		c-0.317-0.724-0.962-0.955-2.074-0.479c-1.038,0.488-2.475,1.896-3.183,4.204c-1.564,4.544,0.462,11.89,6.839,15.665
		c3.789,2.264,8.086,2.897,11.639,2.719C680.492,453.44,683.447,452.572,685.508,451.791z"/>
	<path class="st3" d="M167.225,487.512c-2.622-3.509-5.882-7.369-8.811-12.165c-3.267-4.538-6.09-10.019-9.163-15.723
		c-5.882-11.595-10.445-25.555-12.745-40.122c-2.319-14.571-2.185-29.744,0.125-43.474c1.205-6.846,2.688-13.404,4.741-19.335
		c0.484-1.488,0.91-2.986,1.405-4.399c0.567-1.359,1.125-2.693,1.671-4.001c0.538-1.309,1.062-2.593,1.577-3.844
		c0.254-0.618,0.504-1.23,0.753-1.833l0.668-1.078c1.949-3.146,4.97-6.022,9.012-7.534c2.011-0.768,4.276-1.258,6.623-1.272
		c1.167,0.016,2.361,0.056,3.511,0.282l0.9,0.148l0.043,0.008l0.016,0.007c4.48,3.093,6.918,6.841,7.034,10.879
		c0.003,1.04-0.018,2.12-0.317,3.265c-0.13,0.656-0.206,0.808-0.404,1.527l-1.1,2.818c-1.506,3.668-2.832,7.738-4.177,11.695
		c-2.477,8.015-4.401,16.139-5.714,24.151c-1.119,8.061-1.823,15.956-1.519,23.51c0.264,15.089,4.357,28.454,9.21,37.368
		c1.076,1.845,2.45,4.707,4.71,7.464c1.077,1.405,2.17,2.892,3.377,4.283c1.316,1.316,2.654,2.6,3.954,3.781
		c2.478,2.479,5.438,3.954,7.432,4.876c2.07,0.862,3.483,0.873,3.902-0.331c1.1-0.532,0.985-2.035,0.213-3.991
		c-0.705-2.021-2.403-4.219-3.669-7.031c-0.701-1.352-1.454-2.718-2.227-4.048c-0.633-1.41-1.263-2.816-1.862-4.154
		c-1.34-2.563-2.018-5.115-2.637-6.718c-2.629-7.82-4.923-18.691-4.307-31.502c0.156-6.376,1.143-13.18,2.411-20.155
		c1.467-6.971,3.419-14.104,5.827-21.185c1.32-3.513,2.532-6.996,4.133-10.662l1.129-2.717c0.417-1.167,1.026-2.892,1.303-4.18
		c0.717-2.699,1.006-5.607,0.993-8.508c-0.05-5.845-1.916-11.707-4.871-16.424c-2.979-4.712-6.807-8.433-10.774-11.189l-2.319-1.563
		c-0.73-0.635-1.625-0.839-2.512-1.056l-2.63-0.711l-1.886-0.369c-2.472-0.471-4.94-0.625-7.372-0.641
		c-4.865,0.013-9.596,0.956-13.936,2.595c-4.344,1.642-8.271,4.031-11.566,6.839c-3.307,2.852-5.84,6.003-7.953,9.337
		c-0.511,0.88-1.031,1.77-1.556,2.67c-0.32,0.755-0.645,1.517-0.974,2.29c-0.638,1.536-1.292,3.108-1.959,4.716
		c-0.661,1.609-1.334,3.253-2.022,4.928c-0.59,1.683-1.089,3.404-1.648,5.152c-2.352,6.946-4.053,14.584-5.361,22.551
		c-2.52,15.967-2.377,33.505,0.776,50.197c3.121,16.686,9.067,32.503,16.643,45.282c3.916,6.301,7.644,12.201,11.836,16.966
		c3.851,5.023,8.043,8.91,11.567,12.251c0.752,0.682,1.626,1.596,2.736,2.505c1.144,0.868,2.422,1.842,3.768,2.867
		c2.765,1.949,5.588,4.33,8.681,5.827c6.07,3.166,11.255,5.019,11.778,2.526c2.044-1.339-1.147-5.83-5.364-10.454
		c-2.184-2.239-4.172-5.087-6.237-7.331c-1.009-1.141-1.968-2.225-2.826-3.194C168.427,489.191,167.788,488.231,167.225,487.512z"/>
	<path class="st3" d="M165.142,552.208c-8.552-0.275-20.003,0.386-32.814,2.724c-12.788,2.383-26.932,6.436-40.61,12.481
		c-6.931,2.978-13.219,6.33-19.121,8.714c-2.948,1.202-5.8,2.215-8.537,2.894c-2.757,0.686-5.395,1.091-7.655,1.103
		c-4.759,0.09-9.511-1.304-12.325-3.25c-2.894-1.99-3.607-3.813-3.872-5.855c-0.025-0.966,0.021-2.037,0.538-3.45
		c0.549-1.409,1.473-3.07,2.789-4.815c2.706-3.49,6.858-7.185,11.732-10.35c2.319-1.566,5.215-3.107,8.121-4.742
		c2.86-1.656,5.9-3.069,8.877-4.648c6.084-2.904,12.303-5.764,18.651-8.169c25.277-10.131,51.467-14.472,67.282-16.814
		c3.313-0.469,9.92-1.358,15.582-2.411c5.647-1.021,10.391-2.427,9.68-4.779c0.994-2.251-3.645-4.137-9.531-5.418
		c-5.878-1.245-12.947-1.651-16.503-1.813c-16.954-0.7-45.622,2.231-73.508,12.371c-6.996,2.405-13.873,5.345-20.592,8.399
		c-3.299,1.657-6.651,3.16-9.824,4.924c-1.596,0.863-3.183,1.721-4.759,2.573c-1.564,0.871-3.316,1.88-4.886,2.914
		c-6.417,4.116-12.253,8.962-17.053,15.054c-2.368,3.092-4.446,6.541-5.915,10.407c-1.459,3.889-2.083,8.283-1.785,12.419
		c0.297,4.174,1.629,8.343,3.976,12.292c2.362,3.891,5.686,7.125,9.321,9.521c7.349,4.779,15.711,6.762,24.375,6.62
		c8.919-0.263,16.696-2.864,23.859-5.937c7.133-3.083,13.399-6.654,19.421-9.446c12.1-5.823,24.701-10.082,36.18-13.121
		c11.499-2.991,21.886-4.746,29.753-5.978c3.289-0.51,9.858-1.422,15.502-2.381c5.63-1.047,10.383-2.268,9.716-4.665
		c1.034-2.202-3.578-4.273-9.484-5.53C175.833,552.701,168.718,552.324,165.142,552.208z"/>
	<path class="st3" d="M621.95,217.102c-0.591,6.448-1.634,16.991-6.629,25.601c-2.434,4.327-5.758,8.225-9.347,11.077
		c-3.577,2.883-7.371,4.741-10.574,5.724c-3.113,0.967-7.277,1.587-11.704,1.095c-4.402-0.44-9.011-1.949-12.483-4.463
		c-1.766-1.268-3.204-2.681-4.304-4.237c-1.128-1.58-1.975-3.366-2.548-5.16c-1.178-3.609-1.134-7.157-0.818-9.767
		c0.094-1.124,0.554-3.269,1.044-5.389c0.429-2.118,1.074-4.244-0.405-5.497c-0.831-1.639-3.484-1.385-6.047,0.415
		c-2.58,1.727-4.721,4.85-5.532,6.514c-2.11,3.896-3.595,9.962-2.504,16.744c0.529,3.377,1.675,6.919,3.58,10.28
		c1.913,3.4,4.594,6.46,7.59,8.897c6.071,4.974,13.521,7.586,20.451,8.454c6.972,0.909,13.545,0.013,18.749-1.606
		c5.13-1.571,11.013-4.532,16.268-8.97c5.279-4.399,9.861-10.223,12.963-16.633c3.159-6.457,4.66-13.244,5.055-19.226
		c0.406-5.995-0.262-11.163-1.219-14.88c-0.382-1.561-1.297-4.622-2.68-6.996c-1.375-2.388-3.176-4.051-4.88-3.258
		c-1.903,0.091-2.701,2.303-3.199,4.748C622.293,213.021,622.105,215.746,621.95,217.102z"/>
	<path class="st3" d="M667.355,191.59c2.24,1.147,5.106,2.704,7.721,5.018c2.609,2.324,4.89,5.212,5.908,8.547
		c1.165,3.357,1.235,7.163,0.548,10.897c-0.757,3.727-2.143,7.266-3.647,10.048c-2.826,5.504-8.972,13.509-15.944,17.736
		c-1.739,1.065-3.518,1.921-5.295,2.557c-1.717,0.624-3.396,0.998-5.107,1.191c-3.402,0.381-6.491,0.028-8.733-0.417
		c-0.984-0.142-2.789-0.633-4.6-1.096c-1.786-0.42-3.727-0.991-5.135,0.27c-1.729,0.701-1.833,3.125-0.533,5.673
		c1.251,2.529,3.803,4.727,5.151,5.599c3.177,2.293,8.098,4.202,13.921,4.549c2.888,0.179,6.091-0.063,9.224-0.811
		c3.077-0.718,6.13-1.873,8.983-3.35c11.511-6.13,18.984-16.157,23.157-23.959c2.08-3.896,4.157-9.025,5.213-15.1
		c0.471-3.055,0.661-6.338,0.381-9.712c-0.301-3.377-1.167-6.817-2.503-10.01c-2.672-6.577-7.732-11.562-12.585-14.523
		c-4.923-3.026-9.844-4.238-13.517-4.443c-1.526-0.134-4.63-0.073-7.099,0.826c-2.497,0.848-4.189,2.477-3.635,4.244
		c-0.072,1.912,1.692,2.973,3.466,3.969C664.456,190.161,666.381,191.11,667.355,191.59z"/>
	<path class="st3" d="M529.833,181.619c4.012-1.91,8.774-8.084,11.884-11.108c2.904-3.205,8.972-8.234,10.717-12.369
		c0.323-0.881,1.461-3.535-0.667-7.081c-1.762-3.741-4.947-3.968-6.035-3.97c-2.572-0.062-6.105,1.354-9.39,3.437
		c-3.296,2.069-6.3,4.791-8.249,6.82c-1.954,2.025-4.589,5.12-6.542,8.516c-1.971,3.38-3.259,6.997-3.076,9.585
		c0.044,1.093,0.43,4.285,4.258,5.842C526.392,183.226,528.967,181.972,529.833,181.619z"/>
	<path class="st3" d="M688.844,164.512c0.575-3.062-0.679-7.893-3.239-12.142c-2.513-4.295-6.241-7.848-9.034-9.969
		c-2.768-2.168-7.185-4.734-11.871-6.056c-4.669-1.368-9.485-1.41-12.266-0.24c-1.217,0.451-4.487,2.203-4.042,6.32
		c-0.027,4.142,2.323,5.91,2.977,6.562c1.707,1.527,4.336,2.755,6.927,4.187c2.593,1.412,5.15,3.005,6.802,4.301
		c1.66,1.279,3.885,3.255,5.837,5.336c1.976,2.069,3.753,4.187,5.542,5.461c0.795,0.453,2.938,2.325,7.014,1.532
		C687.615,169.482,688.706,165.828,688.844,164.512z"/>
	<path class="st3" d="M602.644,276.34c-0.362,4.921,0.496,12.686,2.43,20.759c0.488,2.016,1.017,4.058,1.616,6.073l0.92,3.01
		c0.351,1.096,0.787,2.302,1.298,3.482c0.506,1.189,1.131,2.411,1.893,3.637c0.936,1.504,2.164,3.057,3.49,4.253
		c2.657,2.497,5.948,3.867,9.117,4.252c2.885,0.3,5.505-0.188,7.714-1.118c2.883-1.16,5.706-3.44,7.886-6.562
		c1.731-2.496,2.835-4.942,3.71-7.506c0.439-1.251,0.804-2.633,1.09-3.833c0.239-1.056,0.483-2.126,0.726-3.201
		c0.465-2.156,0.937-4.342,1.405-6.508c1.8-8.68,3.222-17.128,3.267-22.416c0.02-2.21,0.044-8.801-3.69-9.187
		c-3.475-1.422-6.564,4.399-7.592,6.355c-2.457,4.683-5.192,12.802-7.702,21.304c-0.613,2.131-1.227,4.279-1.835,6.401
		c-0.292,1.063-0.583,2.121-0.871,3.164c-0.254,0.894-0.46,1.577-0.739,2.301c-0.505,1.4-1.176,2.634-1.633,3.246l-0.006-0.007
		v0.009l-0.029,0.029l-0.072-0.047c-0.262-0.386-0.556-0.872-0.842-1.475c-0.293-0.606-0.57-1.245-0.87-2.03l-0.99-2.671
		c-0.637-1.798-1.277-3.6-1.908-5.377c-2.466-7.13-4.492-13.95-6.3-18.197c-0.884-1.935-3.215-7.907-6.833-7.009
		C603.513,267.317,602.751,274.046,602.644,276.34z"/>
	<path class="st3" d="M643.209,325.46c-2.028,1.739-4.538,4.624-7.666,7.004c-3.077,2.436-6.681,4.183-9.284,4.979
		c-2.585,0.862-6.607,1.52-10.64,1.42c-4.049-0.023-7.924-0.818-10.663-0.893c-1.137,0.072-4.629-0.418-6.698,2.644
		c-2.607,2.742,0.056,6.518,1.227,7.621c2.507,2.792,8.076,5.756,14.379,6.739c6.281,1.112,13.073,0.221,17.579-1.288
		c4.543-1.378,10.705-4.609,15.143-9.363c4.539-4.649,7.187-10.561,7.358-14.385c0.079-0.782,0.085-2.4-0.438-3.815
		c-0.565-1.449-1.628-2.622-3.482-2.872C646.464,322.277,644.138,324.834,643.209,325.46z"/>
	<path class="st4" d="M623.07,188.057c21.843-2.909,20.658,7.27,21,12.081c0.344,4.812-8.914,14.207-17.946,15.204
		c-9.032,0.996-22.281-5.574-24.456-12.827C599.496,195.262,610.229,189.768,623.07,188.057z"/>
	<path class="st3" d="M88.537,436.483c-3.437,1.336-8.409,5.042-12.37,9.998c-4.021,4.91-6.911,10.909-8.346,15.26
		c-1.463,4.337-2.876,10.866-2.593,17.257c0.194,6.385,2.021,12.398,4.099,15.497c0.802,1.368,3.702,4.937,6.13,3.333
		c2.744-0.999,2.398-4.871,2.475-6.128c-0.015-3.054-0.447-7.743-0.1-12.592c0.287-4.851,1.438-9.773,2.549-13.113
		c1.109-3.343,3.239-7.948,5.938-12.04c2.657-4.128,5.832-7.682,7.618-10.212c0.696-1.055,3.21-4.077,1.516-6.449
		C94.354,434.594,89.985,435.868,88.537,436.483z"/>
	<path class="st3" d="M55.981,415.363c-4.147,3.156-9.891,9.769-14.248,17.659c-4.44,7.846-7.344,16.817-8.693,23.19
		c-1.347,6.368-2.415,15.748-1.522,24.746c0.792,9.001,3.415,17.401,6.022,21.94c1.014,1.965,4.646,7.329,7.025,5.62
		c2.834-0.802,1.701-6.585,1.548-8.514c-0.59-4.637-1.858-12.049-2.011-19.804c-0.239-7.751,0.76-15.735,1.905-21.212
		c1.168-5.475,3.565-13.165,6.925-20.179c3.29-7.049,7.44-13.353,9.795-17.416c0.922-1.705,4.21-6.623,1.908-8.45
		C63.093,410.444,57.693,413.978,55.981,415.363z"/>
</g>
</svg>
