<?xml version="1.0" encoding="utf-8"?>
<!-- Generator: Adobe Illustrator 25.2.3, SVG Export Plug-In . SVG Version: 6.00 Build 0)  -->
<svg version="1.1" id="_x31__1_" xmlns="http://www.w3.org/2000/svg" xmlns:xlink="http://www.w3.org/1999/xlink" x="0px" y="0px"
	 viewBox="0 0 850 815" style="enable-background:new 0 0 850 815;" xml:space="preserve">
<style type="text/css">
	.st0{fill:#F4E8D9;}
	.st1{fill:#FFF7E8;}
	.st2{fill:#56302A;}
	.st3{fill:#FFFDF8;}
	.st4{fill:#685A59;}
	.st5{fill:#CE9884;}
	.st6{fill:#827675;}
	.st7{fill:#C6B6A3;}
	.st8{fill:#C5B5A2;}
	.st9{fill:#EDCCB4;}
	.st10{fill:#C6AA8B;}
</style>
<g>
	<path class="st0" d="M564.194,566.624c0.276,1.128,0.39,1.713,0.39,1.713c10.278,46.238,10.278,170.784,10.278,170.784
		l-127.464-0.819l-192.929-1.247l-78.894-0.505c0,0-1.283-89.868,20.513-160.506c0,0,192.929-166.347,305.798-191.218
		c112.829-24.871,133.34,139.88,133.34,139.88C620.942,543.155,586.418,558.335,564.194,566.624z"/>
	<path class="st1" d="M603.659,260.704c-53.177-57.56-120.924-84.661-182.245-79.664c-114.742-0.168-238.522,34.747-299.259,81.341
		C70.786,287.646,11.434,371.467,10.711,455.659c-0.582,67.699,47.076,145.005,190.85,122.262l334.193-81.928
		c72.472-22.51,89.502-58.903,103.783-91.48C655.096,369.022,636.157,295.876,603.659,260.704z"/>
	<path class="st0" d="M209.631,584.729c-57.825,8.732-111.473-9.395-139.82-35.427c-28.599-26.26-33.043-62.373-33.15-81.562
		c-0.422-78.274,50.376-158.966,96.229-182.43l2.065-1.056l1.821-1.474c32.768-26.525,88.172-49.757,152.006-63.74
		c44.026-9.644,89.951-14.382,132.805-13.701l0.97,0.014l0.967-0.07c56.28-4.073,117.869,25.582,164.745,79.322
		c29.213,33.487,43.85,100.928,33.449,126.825c-12.261,30.524-35.209,74.737-98.089,94.86L209.631,584.729z"/>
	<path class="st2" d="M224.587,725.097c0.078-8.05-0.087-14.892-0.506-35.55c-0.394-20.651-0.467-27.472-0.76-35.449
		c-0.087-2.313-0.601-5.736-1.659-8.536c-1.084-2.898-2.593-4.745-5.015-5.305c-2.395-0.558-4.424,2.161-5.567,5.027
		c-1.191,2.957-1.74,6.46-1.812,8.817c-0.253,8.129-0.237,15.005,0.156,35.733c0.422,20.721,0.646,27.568,1.117,35.622
		c0.276,4.669,2.487,13.807,7.392,13.666C222.834,738.984,224.548,729.765,224.587,725.097z"/>
	<path class="st3" d="M447.397,738.302l-192.929-1.247c-0.779-4.514-1.364-9.107-1.792-13.777
		c-5.759-65.193,25.259-121.159,89.324-126.802c64.062-5.644,99.907,40.322,105.669,105.513
		C448.757,714.405,448.682,726.627,447.397,738.302z"/>
	<path class="st2" d="M548.125,500.151c3.457-0.992,7.817-2.752,13.089-4.755c3.886-1.44,8.061-3.659,12.78-5.758
		c3.87-2.022,7.963-4.371,12.284-6.968c3.808-2.386,7.768-4.974,11.735-8.035c3.759-2.583,7.482-5.61,11.268-8.837
		c3.333-3.229,7.055-6.315,10.264-10.128c1.604-1.719,3.049-3.606,4.5-5.525c1.483-1.898,2.95-3.84,4.291-5.898
		c2.704-3.834,4.782-8.145,7.151-12.332c2.253-4.035,4.584-8.092,6.616-12.35c1.939-4.184,3.954-8.052,5.794-12.566
		c0.877-2.405,1.636-4.887,2.325-7.368c0.431-2.484,0.846-4.971,1.392-7.446c0.539-2.411,0.805-4.788,1.298-7.211
		c0.205-1.209,0.468-2.431,0.603-3.647c0.101-1.21,0.182-2.428,0.221-3.65c0.289-4.806-0.003-9.568-0.231-14.387
		c-0.072-2.37-0.532-4.679-0.837-7.03c-0.357-2.338-0.626-4.707-1.071-7.033c-0.741-4.603-1.312-9.285-2.435-13.876
		c-0.919-4.573-2.337-9.041-3.6-13.58c-1.299-4.464-2.954-8.845-4.499-13.284c-1.76-4.313-3.142-8.801-5.217-13.054l-2.967-6.378
		l-3.347-6.256l-1.676-3.107l-1.902-3.01l-3.804-6.036c-2.831-3.858-5.072-8.119-8.37-11.779c-3.103-3.875-6.606-6.842-9.826-10.16
		l-4.814-4.992l-5.049-4.775c-1.694-1.578-3.327-3.225-4.967-4.873c-1.697-1.58-3.428-3.132-5.203-4.63
		c-1.779-1.497-3.636-2.901-5.487-4.304c-1.879-1.371-3.839-2.637-5.68-4.049c-3.691-2.829-7.291-5.789-11.2-8.324l-5.856-3.822
		c-1.971-1.243-4.035-2.334-6.016-3.552l-5.999-3.581c-2.018-1.154-4.106-2.185-6.152-3.287l-6.161-3.319l-6.311-2.99
		c-2.13-0.974-4.259-1.935-6.411-2.836l-6.531-2.488c-4.325-1.814-8.593-3.773-13.034-5.211c-4.444-1.586-9.158-2.173-13.637-3.397
		c-4.522-1.335-9.109-2.389-13.66-3.404c-4.649-0.906-9.369-1.192-13.969-1.893c-4.73-0.396-9.407-0.984-14.066-1.195
		c-4.771,0.007-9.482-0.035-14.134,0.297c-2.383,0.114-4.756,0.106-7.122,0.101l-0.886-0.001h-0.441l-0.208-0.002l0.231-0.023
		l0.055-0.011l-0.215-0.006l-0.425-0.014l-0.851-0.022c-1.132-0.026-2.266-0.037-3.392-0.019c-4.626,0.078-9.181,0.481-13.674,0.56
		c-4.638,0.02-9.183,0.461-13.66,0.651c-4.635,0.281-9.222,0.061-13.676,0.447c-4.646,0.41-9.141,1.317-13.57,1.711
		c-4.661,0.355-9.222,0.574-13.614,1.144c-4.672,0.507-9.204,0.996-13.579,1.471c-4.701,0.662-9.135,1.847-13.452,2.505
		c-4.724,0.748-9.285,1.082-13.505,1.945c-4.795,0.904-9.213,2.072-13.349,2.855c-4.983,0.865-9.424,1.948-13.362,2.77
		c-5.501,1.257-10.076,1.829-13.367,2.701c-3.315,0.802-7.778,1.881-13.274,3.214c-3.922,0.944-8.217,2.572-13.074,4.017
		c-4.045,1.206-8.518,2.175-13.182,3.644c-4.091,1.394-8.422,2.869-12.966,4.42c-4.174,1.313-8.378,3.149-12.829,4.816
		c-4.119,1.6-8.424,3.127-12.767,5.005c-4.103,1.731-8.463,3.193-12.8,5.024c-4.12,1.751-8.103,4.109-12.352,6.082
		c-2.029,0.979-4.077,1.965-6.145,2.962c-2.03,1.096-4.077,2.201-6.145,3.318c-3.964,2.201-8.21,4.024-12.18,6.602
		c-3.876,2.436-7.849,4.814-11.761,7.473c-3.552,2.419-7.148,4.872-10.79,7.356c-1.87,1.037-3.75,2.081-5.64,3.129
		c-2.119,1.18-4.285,2.328-6.222,3.753c-3.87,2.713-7.856,5.416-11.453,8.525c-3.646,2.938-7.606,5.598-10.979,8.919
		c-3.431,3.174-6.535,6.717-9.67,10.208c-3.171,3.371-6.769,6.419-9.684,10.089c-2.931,3.59-5.649,7.386-8.327,11.199
		c-2.687,3.75-5.892,7.175-8.395,11.109c-2.513,3.88-5.177,7.689-7.609,11.657c-2.357,3.985-4.723,7.982-7.093,11.989
		c-2.152,4.096-4.045,8.337-6.142,12.478c-2.139,4.112-3.963,8.395-5.866,12.641c-1.941,4.227-3.434,8.645-5.002,13.037
		c-0.782,2.196-1.468,4.426-2.149,6.654c-0.623,2.246-1.1,4.541-1.76,6.776c-1.201,4.516-2.805,8.913-3.619,13.528
		c-0.918,4.596-2.438,9.071-3.178,13.702c-0.623,4.675-0.646,9.401-1.251,14.025c-0.385,4.684-0.727,9.381-0.987,14.058
		c-0.168,2.346-0.246,4.723-0.24,7.121c-0.072,2.389,0.01,4.773,0.166,7.149c0.289,4.798,1.022,9.536,1.798,14.232
		c0.773,4.749,1.694,9.467,2.944,14.076c1.272,4.671,2.931,9.199,4.671,13.653c1.783,4.514,3.564,9.019,5.811,13.271
		c2.314,4.306,4.837,8.458,7.58,12.409c2.831,4.016,6.074,7.646,9.275,11.207c3.298,3.634,6.931,6.853,10.544,9.956
		c1.789,1.673,3.743,3.115,5.639,4.605c1.87,1.526,3.834,2.886,5.808,4.196c2.009,1.398,3.969,2.83,6.015,4.095
		c2.029,1.283,3.987,2.692,6.12,3.699c2.191,1.087,4.346,2.206,6.538,3.165c2.203,0.92,4.389,1.831,6.554,2.733
		c4.554,1.708,9.047,3.318,13.507,4.524c4.639,1.477,9.219,2.607,13.692,3.657c4.778,0.835,9.427,1.659,13.927,2.109
		c2.418,0.265,4.791,0.525,7.119,0.779c2.33,0.138,4.612,0.274,6.846,0.407c4.876,0.444,9.508,0.669,13.914,0.819
		c4.957,0.011,9.583-0.349,13.877-0.466c5.078-0.375,9.743-0.16,13.827-0.593c5.544-0.658,10.086-1.619,13.595-2.23
		c3.643-0.622,10.641-3.557,9.768-8.895c-0.785-4.749-8.21-6.732-11.696-6.357c-3.389,0.471-7.785,0.821-13.075,1.344
		c-3.889,0.333-8.269,0.379-13.08,0.665c-4.045,0.044-8.408,0.219-13.05,0.152c-4.099-0.197-8.482,0.256-13.004-0.212
		c-2.071-0.167-4.172-0.486-6.308-0.806c-2.12-0.429-4.273-0.865-6.483-1.151c-4.145-0.439-8.313-1.4-12.654-2.175
		c-4.019-0.99-8.223-1.787-12.355-3.146c-3.999-1.099-7.93-2.624-11.956-4.141c-1.887-0.826-3.814-1.605-5.765-2.389
		c-1.932-0.82-3.805-1.798-5.716-2.75c-1.87-0.881-3.561-2.089-5.337-3.183c-1.789-1.074-3.5-2.289-5.22-3.509
		c-1.701-1.144-3.415-2.294-5.018-3.605c-1.63-1.281-3.341-2.488-4.86-3.941c-3.094-2.675-6.051-5.578-8.859-8.68
		c-2.727-3.05-5.535-6.118-7.954-9.554c-2.337-3.391-4.441-6.981-6.427-10.68c-1.919-3.662-3.512-7.519-5.055-11.426
		c-1.496-3.867-2.753-7.855-3.862-11.923c-1.078-4.017-1.806-8.152-2.481-12.311c-0.669-4.112-1.487-8.26-1.743-12.492
		c-0.121-2.096-0.295-4.193-0.302-6.304c-0.071-2.106-0.116-4.224,0.055-6.386c0.306-4.261,0.611-8.539,0.919-12.827
		c0.656-4.237,1.311-8.486,1.971-12.744c0.636-4.228,1.265-8.508,2.101-12.743c0.743-4.251,2.515-8.27,3.645-12.437
		c0.601-2.075,1.068-4.191,1.594-6.294c0.637-2.071,1.273-4.149,2.007-6.192c1.486-4.087,3.314-8.03,5.148-11.967
		c1.778-3.961,2.759-8.288,4.746-12.167c1.98-3.897,4.216-7.648,6.207-11.51c2.194-3.766,4.382-7.524,6.56-11.271
		c2.256-3.731,4.564-7.419,6.911-11.066c2.319-3.709,5.13-7.036,7.643-10.559c2.508-3.586,5.333-6.874,8.069-10.211
		c2.721-3.431,6.084-6.212,9.028-9.321c2.909-3.246,6.008-6.212,9.145-9.098c3.09-3.056,6.463-5.657,9.752-8.301
		c3.268-2.843,6.859-5.01,10.271-7.414c1.723-1.281,3.567-2.241,5.395-3.213c2-1.098,3.986-2.191,5.963-3.276l0.731-0.432
		l0.899-0.639l0.66-0.478l1.308-0.962l2.583-1.947c1.718-1.299,3.422-2.594,5.152-3.826c3.607-2.471,7.583-4.346,11.187-6.622
		c3.68-2.408,7.641-4.322,11.387-6.401c1.957-1.055,3.86-2.178,5.743-3.292c1.915-1.063,3.86-2.042,5.794-2.975
		c4.074-1.893,7.954-3.947,11.908-5.632c4.158-1.777,8.21-3.509,12.148-5.192c4.168-1.814,8.527-2.81,12.498-4.355
		c4.298-1.612,8.304-3.532,12.359-4.807c4.401-1.486,8.596-2.9,12.556-4.238c4.519-1.426,8.824-2.514,12.748-3.688
		c4.714-1.406,8.914-2.86,12.728-3.778c5.327-1.339,9.655-2.427,12.869-3.234c3.204-0.847,7.7-1.238,13.056-2.457
		c3.834-0.799,8.122-2.002,12.979-2.839c4.032-0.756,8.31-2.016,12.982-2.896c4.117-0.84,8.605-0.889,13.206-1.617
		c4.197-0.635,8.55-1.518,13.111-2.16c4.253-0.537,8.648-1.094,13.187-1.668c4.272-0.554,8.668-1.132,13.203-1.477
		c4.307-0.301,8.726-0.612,13.237-0.928c4.319-0.379,8.726-0.718,13.222-0.992c4.344-0.182,8.759-0.612,13.252-0.634
		c4.353-0.041,8.775-0.081,13.257-0.122l3.283-0.125l1.648-0.098l1.126-0.064l0.4-0.039l0.795-0.078
		c2.123-0.208,4.266-0.42,6.428-0.528c2.107-0.152,4.233-0.16,6.375-0.071c2.14,0.042,4.292,0.082,6.454,0.125
		c4.24,0.168,8.479,1.001,12.78,1.321c4.201,0.649,8.469,1.071,12.719,1.878c4.161,0.936,8.434,1.488,12.599,2.705
		c4.116,1.142,8.281,2.215,12.359,3.685c4.067,1.33,8.219,2.501,12.222,4.189l6.032,2.306c2.003,0.813,3.963,1.737,5.94,2.63
		c1.958,0.901,3.892,1.856,5.828,2.817c1.882,1.07,3.769,2.139,5.687,3.152c1.902,1.017,3.876,1.909,5.814,2.88
		c1.902,1.035,3.814,2.07,5.68,3.187c1.844,1.124,3.724,2.197,5.545,3.374l5.388,3.652c1.789,1.222,3.614,2.399,5.373,3.669
		l5.201,3.935l5.246,3.875l5.057,4.136l4.986,4.227l4.769,4.478c3.223,2.949,6.359,5.982,9.343,9.173
		c3.036,3.139,6.142,6.351,8.638,9.517c2.786,3.038,5.026,6.645,7.499,9.998l3.503,5.309c1.207,1.743,2.373,3.518,3.331,5.431
		c1.01,1.896,1.902,3.847,2.795,5.786c0.821,1.982,1.571,3.996,2.473,5.926c1.905,3.861,3.22,7.981,4.844,11.929
		c1.454,4.066,3.074,8.069,4.304,12.166c1.159,4.178,2.331,8.325,3.171,12.503c1.052,4.205,2.12,8.362,2.805,12.56
		c0.423,2.13,0.62,4.257,0.887,6.372c0.22,2.113,0.593,4.227,0.675,6.317c0.194,4.27,0.269,8.504,0.019,12.595
		c-0.029,2.113-0.068,4.204-0.353,6.211c-0.257,2.011-0.319,4.094-0.73,6.013c-0.426,1.969-0.845,3.922-1.263,5.863
		c-0.623,1.803-1.243,3.593-1.857,5.371c-1.551,3.933-3.395,8.213-5.145,12.053c-1.893,4.024-4.181,7.704-6.193,11.358
		c-2.12,3.8-4.363,7.386-6.703,10.742c-1.159,1.821-2.371,3.557-3.594,5.249c-1.198,1.719-2.379,3.42-3.766,4.911
		c-2.753,3.338-6.044,5.969-8.905,8.812c-3.301,2.836-6.343,5.727-9.677,8.048c-3.454,2.741-6.902,5.232-10.287,7.422
		c-3.87,2.388-7.698,4.359-11.19,6.261c-4.322,1.985-8.012,4.257-11.622,5.671c-4.882,1.959-8.923,3.584-12.16,4.631
		c-3.259,1.22-8.587,5.904-7.197,10.513C537.324,501.176,544.551,501.241,548.125,500.151z"/>
	<path class="st2" d="M182.59,730.615c0.714-14.97,1.613-25.926,2.425-36.912c0.88-10.986,1.754-22.032,3.338-37.189
		c1.882-15.127,3.781-25.993,5.521-36.815c1.978-10.76,3.727-21.532,7.34-35.931c0.467-1.916-0.428-6.243-5.11-7.709
		c-4.681-1.466-7.748,1.834-8.391,3.809c-4.889,14.745-7.391,25.762-9.768,36.85c-2.133,11.12-4.064,22.358-5.697,37.903
		c-1.922,15.511-2.844,26.818-3.405,38.069c-0.498,11.263-0.721,22.447-0.306,37.827c0.046,2.042,2.113,6.117,7.024,6.036
		C180.463,736.475,182.486,732.618,182.59,730.615z"/>
	<path class="st2" d="M224.587,725.097c0.078-8.05-0.087-14.892-0.506-35.55c-0.394-20.651-0.467-27.472-0.76-35.449
		c-0.087-2.313-0.601-5.736-1.659-8.536c-1.084-2.898-2.593-4.745-5.015-5.305c-2.395-0.558-4.424,2.161-5.567,5.027
		c-1.191,2.957-1.74,6.46-1.812,8.817c-0.253,8.129-0.237,15.005,0.156,35.733c0.422,20.721,0.646,27.568,1.117,35.622
		c0.276,4.669,2.487,13.807,7.392,13.666C222.834,738.984,224.548,729.765,224.587,725.097z"/>
	<path class="st2" d="M560.305,575.496c4.132-1.322,7.927-2.623,13.258-4.697c5.336-2.058,12.229-4.839,22.363-9.693
		c10.125-4.888,16.667-8.734,21.604-11.94c4.957-3.157,8.251-5.823,11.777-8.689c1.938-1.884,4.691-4.784,6.117-8.039
		c1.425-3.285,1.749-6.259-0.205-7.736c-1.958-1.477-4.856-0.821-7.473,0.448c-2.643,1.273-5.645,2.974-7.321,4.441
		c-3.256,2.291-6.164,4.495-10.729,7.303c-4.513,2.836-10.556,6.383-20.143,11.013c-9.605,4.601-16.231,7.295-21.334,9.349
		c-5.122,2.029-8.717,3.454-12.605,4.996c-4.506,1.821-12.933,6.573-11.557,11.24C545.456,578.237,555.529,577.079,560.305,575.496z
		"/>
	<path class="st2" d="M581.873,732.763c0.805-32.143,0.75-46.928-0.896-79.616c-0.561-16.356-1.38-28.255-2.435-40.075
		c-1.236-11.842-2.473-23.56-5.853-39.78c-0.493-2.186-3.307-6.034-8.089-4.935c-4.783,1.098-6.039,5.469-5.733,7.476
		c2.081,15.338,2.652,26.976,3.522,38.541c0.705,11.626,1.543,23.324,2.389,39.506c1.039,32.388,1.584,47.073,3.043,78.97
		c0.09,2.126,2.148,6.27,7.05,6.273C579.779,739.125,581.811,734.904,581.873,732.763z"/>
	<path class="st4" d="M264.197,546.56c33.995,28.215,102.637,11.406,121.93-34.585c10.901-25.987-19.221-100.391-84.285-89.17
		C219.363,437.03,243.334,534.728,264.197,546.56z"/>
	<path class="st2" d="M264.197,546.56l-4.609,5.551c12.939,10.716,29.771,15.451,46.963,15.455
		c17.261-0.012,35.066-4.745,50.512-13.65c15.417-8.904,28.551-22.101,35.715-39.15c1.952-4.695,2.734-9.936,2.743-15.548
		c-0.009-8.328-1.786-17.541-5.171-26.874c-5.093-13.974-13.845-28.237-26.447-39.263c-6.298-5.503-13.576-10.173-21.796-13.462
		c-8.213-3.292-17.36-5.182-27.261-5.179c-4.587,0-9.343,0.403-14.242,1.255l0.01-0.002c-11.775,2.029-21.773,5.702-30.096,10.684
		c-12.499,7.456-21.085,17.874-26.327,29.271c-5.262,11.41-7.314,23.751-7.317,35.62c0.01,13.801,2.756,26.998,6.885,37.781
		c2.078,5.396,4.496,10.189,7.23,14.211c2.762,4.011,5.755,7.327,9.647,9.575L264.197,546.56l-4.609,5.551L264.197,546.56
		l3.558-6.276c-0.967-0.508-2.918-2.275-4.84-5.143c-2.931-4.284-5.935-10.851-8.083-18.519c-2.169-7.674-3.532-16.466-3.529-25.353
		c-0.003-13.633,3.191-27.326,11.001-38.223c3.918-5.469,8.986-10.309,15.625-14.286c6.636-3.97,14.875-7.075,25.136-8.846
		l0.009-0.001c4.106-0.713,8.032-1.041,11.772-1.041c10.764,0.008,20.081,2.685,28.242,7.138
		c12.215,6.664,21.818,17.525,28.291,29.339c6.492,11.77,9.746,24.497,9.713,33.87c0.01,4.204-0.649,7.682-1.623,9.967
		c-5.713,13.626-16.439,24.616-29.622,32.234c-13.16,7.614-28.7,11.729-43.295,11.716c-14.592,0.005-28.06-4.064-37.747-12.128
		l-0.493-0.409l-0.556-0.315L264.197,546.56z"/>
	<path class="st5" d="M287.651,519.088c19.17,17.943,53.077,0.965,60.861-17.53c7.782-18.496-29.223-64.96-46.882-66.338
		C283.971,433.843,274.355,505.21,287.651,519.088z"/>
	<path class="st2" d="M287.651,519.088l-3.736,3.988c6.843,6.433,15.468,9.123,23.856,9.096c9.827-0.021,19.503-3.44,27.632-8.569
		c8.109-5.171,14.771-12.03,18.141-19.923c1.071-2.553,1.483-5.253,1.487-7.955c-0.04-6.611-2.363-13.507-5.808-20.53
		c-5.21-10.496-13.147-21.192-21.516-29.646c-4.192-4.225-8.486-7.88-12.725-10.651c-4.262-2.743-8.417-4.73-12.93-5.126
		l0.049,0.005c-0.309-0.028-0.637-0.045-0.977-0.045c-2.721-0.007-5.262,0.966-7.287,2.372c-3.562,2.493-6.009,6.097-8.162,10.33
		c-3.178,6.369-5.524,14.396-7.177,23.035c-1.636,8.633-2.533,17.842-2.536,26.417c0.003,6.364,0.49,12.365,1.617,17.617
		c0.567,2.628,1.294,5.073,2.266,7.315c0.973,2.237,2.185,4.291,3.859,6.048l0.098,0.104l0.114,0.106L287.651,519.088l3.944-3.781
		c-0.483-0.497-1.129-1.449-1.727-2.837c-0.906-2.075-1.694-5.073-2.204-8.612c-0.516-3.543-0.776-7.632-0.773-11.972
		c-0.013-11.894,1.958-25.706,5.223-36.069c1.61-5.175,3.581-9.487,5.461-12.105c0.928-1.313,1.818-2.175,2.441-2.597
		c0.649-0.429,0.909-0.446,1.107-0.453l0.032,0.001l0.049,0.005c0.987,0.064,2.649,0.531,4.626,1.533
		c3.477,1.736,7.856,5.005,12.236,9.193c6.592,6.279,13.286,14.614,18.185,22.835c2.451,4.107,4.461,8.187,5.814,11.906
		c1.366,3.714,2.044,7.067,2.035,9.589c0.003,1.59-0.246,2.819-0.626,3.715c-2.084,5.047-7.275,10.762-13.917,14.932
		c-6.619,4.208-14.582,6.893-21.786,6.873c-6.21-0.028-11.732-1.818-16.387-6.146L287.651,519.088l3.944-3.781L287.651,519.088z"/>
	<path class="st4" d="M292.365,367.19c-74.346,0.461-122.982,72.829-117.751,126.486c4.126,42.345,28.954,55.273,65.668,44.482
		c28.341-8.329,34.534-30.071,44.987-56.907c5.524-14.181,8.385-29.831,9.021-45.365c0.247-6.021,8.233-7.817,11.106-2.521
		c24.655,45.474,74.511,91.91,118.089,52.869c53.265-47.72-8.804-112.132-60.92-123.767
		C334.985,356.311,317.049,357.119,292.365,367.19z"/>
	<path class="st2" d="M292.365,367.19l-0.049-7.64c-18.851,0.112-36.238,4.584-51.583,12.073
		c-23.032,11.245-41.485,29.178-54.239,49.491c-12.744,20.331-19.89,43.086-19.912,64.52c0,2.947,0.133,5.885,0.428,8.807
		l-0.003-0.024c0.857,8.782,2.562,16.569,5.159,23.399c3.876,10.225,9.913,18.37,17.857,23.747
		c7.931,5.401,17.472,7.865,27.698,7.848c7.781-0.003,16.023-1.38,24.707-3.922c7.878-2.31,14.508-5.666,20.02-9.903
		c8.297-6.359,13.891-14.528,18.292-23.306c4.412-8.805,7.768-18.327,11.645-28.257c5.888-15.125,8.868-31.568,9.537-47.825
		l-1.558-0.066l1.389,0.666l0.169-0.6l-1.558-0.066l1.389,0.666l-1.775-0.852l1.01,1.703c0.266-0.15,0.584-0.464,0.766-0.851
		l-1.775-0.852l1.01,1.703l-0.776-1.309v1.526l0.776-0.217l-0.776-1.309v1.526v-1.816l-0.895,1.567
		c0.321,0.184,0.645,0.25,0.895,0.248v-1.816l-0.895,1.567l0.775-1.362l-1.402,0.77c0.046,0.105,0.306,0.42,0.628,0.592l0.775-1.362
		l-1.402,0.77l-0.009-0.02c9.462,17.431,22.374,34.927,37.569,48.392c7.606,6.726,15.799,12.448,24.513,16.548
		c8.706,4.094,17.98,6.564,27.541,6.564c6.827,0.004,13.767-1.276,20.552-4.016c6.789-2.736,13.405-6.909,19.725-12.567
		c7.852-7.034,13.621-14.61,17.4-22.528c3.782-7.911,5.535-16.139,5.528-24.215c-0.003-10.899-3.127-21.454-8.236-31.182
		c-7.69-14.599-19.822-27.496-33.768-37.733c-13.972-10.219-29.777-17.784-45.275-21.258c-11.748-2.623-22.084-4.087-32.108-4.087
		c-14.219-0.02-27.591,3.024-42.646,9.193L292.365,367.19l-0.049-7.64L292.365,367.19l2.889,7.072
		c13.868-5.647,24.804-8.041,36.865-8.06c8.515,0,17.701,1.247,28.781,3.72c17.348,3.832,36.738,14.503,51.282,28.473
		c7.287,6.97,13.374,14.733,17.562,22.712c4.197,7.99,6.486,16.134,6.482,24.076c-0.006,5.908-1.236,11.745-4.038,17.634
		c-2.808,5.881-7.233,11.836-13.804,17.726c-5.168,4.623-10.258,7.768-15.245,9.779c-4.989,2.008-9.895,2.904-14.838,2.909
		c-6.905,0-13.952-1.783-21.042-5.113c-10.622-4.978-21.215-13.484-30.707-23.843c-9.501-10.346-17.919-22.509-24.444-34.553
		l-0.009-0.02c-1.224-2.264-3.078-4.147-5.197-5.348c-2.123-1.214-4.451-1.769-6.691-1.768c-3.272,0.01-6.467,1.136-9.05,3.398
		c-1.283,1.129-2.394,2.555-3.182,4.205c-0.796,1.645-1.25,3.501-1.324,5.382c-0.604,14.809-3.344,29.666-8.505,42.905
		c-5.272,13.608-9.395,25.341-15.073,33.999c-2.834,4.348-5.993,7.96-9.933,10.987c-3.944,3.022-8.72,5.508-15.018,7.364
		c-7.593,2.227-14.452,3.307-20.405,3.304c-5.243-0.001-9.778-0.82-13.677-2.352c-5.834-2.326-10.423-6.137-14.206-12.345
		c-3.746-6.202-6.502-14.942-7.622-26.501l-0.004-0.024c-0.237-2.363-0.35-4.792-0.35-7.277c-0.006-11.99,2.727-25.008,7.947-37.719
		c7.817-19.08,21.218-37.414,38.757-50.852c17.563-13.45,39.121-22.069,63.845-22.234l1.483-0.009l1.36-0.557L292.365,367.19z"/>
	<path class="st6" d="M233.742,448.179c-4.087-0.595-5.687-4.626-3.237-8.216c1.308-1.915,3.457-3.214,6.197-2.521
		c4.265,1.081,5.135,4.467,3.899,7.168C239.559,446.889,237.01,448.679,233.742,448.179z"/>
	<path class="st6" d="M254.4,474.588c-4.09-0.595-5.691-4.626-3.24-8.216c1.309-1.916,3.457-3.214,6.198-2.521
		c4.265,1.081,5.136,4.467,3.899,7.167C260.214,473.298,257.669,475.087,254.4,474.588z"/>
	<path class="st6" d="M218.318,483.681c-4.088-0.595-5.687-4.624-3.237-8.216c1.308-1.915,3.457-3.214,6.198-2.519
		c4.265,1.079,5.135,4.465,3.899,7.166C224.136,482.39,221.587,484.18,218.318,483.681z"/>
	<path class="st6" d="M370.983,417.522c-4.087-0.596-5.688-4.626-3.236-8.217c1.308-1.914,3.457-3.213,6.197-2.52
		c4.265,1.08,5.136,4.467,3.898,7.166C376.8,416.231,374.252,418.022,370.983,417.522z"/>
	<path class="st6" d="M391.639,443.931c-4.087-0.596-5.687-4.627-3.237-8.217c1.308-1.916,3.457-3.214,6.198-2.52
		c4.265,1.08,5.135,4.467,3.899,7.166C397.457,442.638,394.912,444.43,391.639,443.931z"/>
	<path class="st6" d="M355.56,453.023c-4.087-0.596-5.687-4.626-3.236-8.217c1.308-1.914,3.457-3.213,6.193-2.52
		c4.27,1.08,5.139,4.467,3.902,7.166C361.377,451.732,358.829,453.523,355.56,453.023z"/>
	<path class="st2" d="M273.845,398.518c0.938,4.276-1.769,8.502-6.045,9.439c-4.276,0.936-8.501-1.771-9.44-6.046
		c-0.935-4.278,1.772-8.503,6.047-9.439C268.684,391.536,272.911,394.243,273.845,398.518z"/>
	<path class="st2" d="M327.73,386.715c0.938,4.276-1.769,8.5-6.045,9.439c-4.276,0.937-8.501-1.77-9.436-6.046
		c-0.939-4.277,1.769-8.501,6.044-9.439C322.568,379.733,326.795,382.438,327.73,386.715z"/>
	<path class="st2" d="M291.001,407.127c-1.039-5.064-0.204-9.54,2.016-10.028c2.221-0.485,4.896,3.22,6.025,8.267
		c1.347,6.017,0.854,5.578,2.156,11.513c0.302,1.386,0.295,1.35,0.659,3.013c1.107,5.051,0.553,9.464-1.668,9.952
		c-2.22,0.485-4.638-3.276-5.746-8.327c-0.263-1.208-0.305-1.4-0.659-3.013C292.648,413.31,292.391,413.907,291.001,407.127z"/>
	<path class="st2" d="M120.596,293.323c-29.652,6.495-68.269,0.193-79.982-32.42c-9.973-27.765-5.159-65.678,17.426-85.392
		c22.548-19.682,55.859-33.127,85.383-22.493c27.8,10.015,57.845,52.975,46.476,83.343
		C176.655,271.742,146.722,303.14,120.596,293.323z"/>
	<path class="st2" d="M379.359,194.454c-72.84-44.284-6.191-136.991,63.399-129.104c70.509,7.989,128.756,109.099,40.958,140.237
		C462.908,212.965,411.133,219.842,379.359,194.454z"/>
	<path class="st7" d="M365.639,288.738c-8.147,1.58-16.393,1.502-23.74,1.448c-7.43-0.112-14.328-0.438-21.298-0.759
		c-6.983-0.308-13.998-0.661-21.896-0.764c-2.003,0.007-3.986-0.055-6.155,0.034c-1.071,0.031-2.156,0.063-3.256,0.096
		c-1.159,0.092-2.334,0.187-3.529,0.283c-2.351,0.222-4.509,0.635-6.882,0.966c-2.337,0.369-4.763,0.658-7.233,1.248
		c-19.954,3.75-33.745,9.646-46.6,15.853c-6.22,3.146-12.42,6.281-19.185,9.701c-6.603,3.176-13.631,6.279-21.802,7.213
		c-1.094,0.224-2.669,0.663-4.091,1.612c-1.412,0.982-2.73,2.514-2.95,4.71c-0.218,2.196,0.954,3.8,2.671,4.871
		c1.705,1.102,3.889,1.602,5.324,1.419c10.915-0.677,19.423-4.135,26.627-7.199c7.226-3.174,13.45-6.264,19.692-9.164
		c12.44-5.677,24.863-10.995,43.061-14.685c2.259-0.516,4.499-0.745,6.648-1.057c2.123-0.27,4.294-0.658,6.194-0.815
		c3.619-0.355,7.625-0.289,11.312-0.284c7.496,0.098,14.52,0.378,21.543,0.537c7.027,0.174,14.099,0.279,21.902,0.072
		c7.843-0.326,16.267-0.473,26.766-3.079c1.467-0.538,3.444-1.451,4.837-3.261c1.405-1.829,1.809-3.82,0.571-5.643
		c-1.237-1.822-3.064-2.694-4.454-3.121C368.311,288.561,366.559,288.418,365.639,288.738z"/>
	<path class="st8" d="M203.846,279.486c-2.95,2.521-5.706,4.821-8.008,6.648c-2.376,1.745-4.531,2.932-6.36,2.268
		c-1.711-0.608-2.701-3.179-2.035-6.934c0.555-3.771,3.139-8.518,7.424-12.284c2.558-2.216,4.62-3.6,6.375-4.533
		c1.724-1.01,3.122-1.621,4.548-2.155c1.393-0.61,2.834-1.05,4.701-1.608c0.919-0.32,1.964-0.589,3.188-0.839
		c1.221-0.268,2.585-0.641,4.213-0.811c3.023-0.438,2.948-0.406,6.61-0.516c5.587,0.013,10.489,1.699,13.465,3.793
		c2.986,2.164,4.172,4.452,3.383,6.126c-0.809,1.739-3.179,2.408-6.143,2.578c-3.009,0.22-6.677,0.126-10.68,0.102
		c-1.916,0.101-2.237-0.026-4.766,0.377c-4.077,0.659-5.772,1.547-7.706,2.448C210.196,275.199,207.891,276.164,203.846,279.486z"/>
	<path class="st8" d="M331.641,238.592c2.847,0.361,5.558,1.313,7.886,2.402c2.321,1.321,4.259,2.677,5.561,4.352
		c1.38,1.469,2.026,3.177,2.227,4.438c0.202,1.279-0.084,2.224-0.782,2.857c-0.698,0.634-1.724,0.914-2.86,0.99
		c-1.147,0.081-2.299-0.127-3.763-0.193c-2.698-0.37-6.035-0.827-10.076-1.299c-4.834-0.482-7.233-0.424-9.551-0.331
		c-1.169,0.06-2.343,0.058-3.847,0.329c-1.52,0.173-3.35,0.579-5.837,1.268c-2.256,0.794-2.256,0.673-4.885,1.767
		c-4.025,1.631-7.531,3.105-10.278,4.051c-1.464,0.418-2.639,0.771-3.749,0.852c-1.114,0.075-2.12-0.11-2.857-0.699
		c-0.733-0.589-1.071-1.504-0.967-2.753c0.094-1.252,0.63-2.866,1.727-4.41c2.087-3.287,6.195-6.614,11.271-8.668
		c2.406-1.048,2.831-1.074,6.116-2.207c5.372-1.492,7.829-2.035,10.752-2.536c1.467-0.223,3.028-0.527,5.203-0.583
		C325.085,238.076,327.834,238.078,331.641,238.592z"/>
	<path class="st2" d="M224.236,347.444c2.428-1.469,4.748-2.339,6.781-3.563c1.98-0.984,3.726-2.225,4.184-3.968
		c0.454-1.702-0.692-3.576-3.457-5.186c-2.724-1.362-7.19-2.323-11.824-1.367c-12.553,2.42-22.454,12.11-25.976,23.783
		c-1.299,4.388-1.158,8.726-0.171,11.637c1.091,2.964,2.791,4.416,4.534,4.246c1.809-0.165,3.275-1.674,4.616-3.489
		c1.451-1.855,2.848-4.115,4.531-6.525C211.887,356.537,217.753,350.982,224.236,347.444z"/>
	<path class="st2" d="M326.276,308.553c-4.273,0.908-7.785,3.168-9.768,5.268c-1.961,2.293-2.458,4.378-1.532,5.887
		c0.931,1.538,2.909,2.236,5.103,2.571c2.302,0.495,4.856,0.538,7.697,0.927c7.487,0.739,14.901,2.869,21.776,6.201
		c2.551,1.248,4.895,2.419,7.035,3.233c2.071,0.816,4.074,1.283,5.694,0.467c1.572-0.777,2.288-2.85,1.766-5.823
		c-0.555-2.909-2.502-6.515-5.58-9.603C350.116,309.562,337.758,305.959,326.276,308.553z"/>
	<path class="st9" d="M143.937,461.424c5.846,26.688-15.732,54.086-48.197,61.199c-32.466,7.111-63.523-8.759-69.369-35.446
		c-5.848-26.688,15.73-54.086,48.196-61.199C107.034,418.867,138.09,434.737,143.937,461.424z"/>
	<path class="st10" d="M57.342,461.231c-0.704,0.166-1.464,0.526-2.318,0.937c-0.666,0.332-1.084,1.045-1.792,1.524
		c-0.617,0.415-1.331,0.846-1.971,1.378c-0.61,0.508-1.305,1.032-1.892,1.663c-0.542,0.578-1.461,0.953-1.99,1.628
		c-0.493,0.63-1.02,1.283-1.5,1.981c-0.201,0.293-0.237,0.696-0.26,1.108c-0.305,0.294-0.62,0.581-0.802,0.941
		c-0.389,0.777-0.918,1.457-1.263,2.211c-0.347,0.805-1.016,1.42-1.308,2.196c-0.302,0.848,0.194,2.011-0.023,2.792
		c-0.228,0.866-0.987,1.458-1.1,2.282c-0.133,1.037-1.033,1.703-1.036,2.627c-0.04,1.148,1.243,2.527,1.418,3.365
		c0.383,1.919,0.623,2.923,1.617,3.112c1.029,0.189,2.197-0.487,3.451-1.708c0.545-0.536,0.489-1.391,1.132-2.159
		c0.473-0.609,1.549-1.073,2.074-1.779c0.419-0.557,0.289-1.402,0.701-2.056c0.39-0.588,0.331-1.424,0.733-2.078
		c0.383-0.602,1.02-1.099,1.41-1.74c0.382-0.599,0.055-0.576,0.454-1.211l0.487-0.732l0.405-0.042
		c0.172-0.304,0.182-0.132,0.487-0.83c0.282-0.685,1.305-1.927,1.62-2.528c0.338-0.648,0.515-1.37,0.817-1.988
		c0.334-0.667,0.857-1.127,1.123-1.762c0.257-0.63,0.516-1.256,0.75-1.829c0.279-0.673,0.666-1.15,0.883-1.746
		c0.292-0.751,1.312-0.509,1.451-1.12c0.354-1.307,0.118-2.943-0.39-3.715C60.205,461.189,59.037,460.908,57.342,461.231z"/>
	<path class="st10" d="M91.389,459.435c-0.587,0.208-1.1,0.593-1.778,0.975c-0.533,0.3-0.692,0.942-1.27,1.343
		c-0.5,0.348-1.033,0.718-1.561,1.135c-0.504,0.399-1.036,0.82-1.532,1.302c-0.458,0.443-1.24,0.681-1.698,1.183
		c-0.431,0.469-0.857,0.967-1.291,1.48c-0.182,0.217-0.205,0.554-0.215,0.902l-0.733,0.666c-0.376,0.583-0.869,1.062-1.214,1.625
		c-0.364,0.597-1.002,0.969-1.321,1.546c-0.344,0.62,0.036,1.73-0.249,2.323c-0.315,0.65-1.075,0.935-1.295,1.564
		c-0.279,0.797-1.185,1.063-1.36,1.774c-0.224,0.896,0.649,2.457,0.593,3.191c-0.122,1.669-0.272,2.548,0.562,3.155
		c0.831,0.604,2.143,0.573,3.691-0.063c0.686-0.279,0.883-1.06,1.668-1.55c0.62-0.389,1.718-0.516,2.389-1.027
		c0.53-0.404,0.545-1.229,1.065-1.729c0.478-0.455,0.533-1.252,1.017-1.768c0.448-0.482,1.11-0.837,1.564-1.368
		c0.428-0.5,0.104-0.534,0.542-1.071l0.529-0.619l0.403,0.016c0.182-0.271,0.182-0.106,0.515-0.738
		c0.319-0.606,1.338-1.72,1.653-2.28c0.338-0.597,0.481-1.309,0.762-1.886c0.309-0.628,0.776-1.103,0.997-1.714
		c0.228-0.621,0.376-1.251,0.545-1.822c0.194-0.663,0.467-1.205,0.584-1.792c0.146-0.747,1.159-0.753,1.172-1.367
		c0.023-1.397-0.779-2.804-1.519-3.342C93.85,458.931,92.733,458.963,91.389,459.435z"/>
	<path class="st10" d="M120.06,461.684c-0.523,0.083-0.964,0.331-1.552,0.545c-0.467,0.169-0.571,0.689-1.071,0.935
		c-0.431,0.21-0.892,0.433-1.347,0.696c-0.434,0.253-0.892,0.513-1.314,0.835c-0.393,0.292-1.088,0.35-1.477,0.69
		c-0.354,0.329-0.718,0.664-1.091,1.008l-0.156,0.721l-0.63,0.419c-0.319,0.416-0.741,0.722-1.029,1.126
		c-0.309,0.429-0.866,0.612-1.136,1.027c-0.292,0.447,0.078,1.472-0.168,1.91c-0.27,0.481-0.942,0.554-1.13,1.035
		c-0.237,0.612-1.042,0.624-1.198,1.183c-0.191,0.704,0.581,2.237,0.526,2.852c-0.13,1.391-0.286,2.107,0.445,2.836
		c0.731,0.727,1.906,1.025,3.321,0.835c0.62-0.084,0.822-0.714,1.54-0.965c0.567-0.199,1.564-0.072,2.177-0.377
		c0.49-0.238,0.507-0.955,0.981-1.282c0.438-0.299,0.481-0.982,0.922-1.335c0.405-0.327,0.999-0.511,1.412-0.886
		c0.386-0.353,0.084-0.445,0.477-0.829l0.475-0.438l0.367,0.086c0.159-0.203,0.165-0.058,0.454-0.547
		c0.279-0.467,1.176-1.259,1.448-1.689c0.289-0.463,0.396-1.053,0.63-1.506c0.257-0.495,0.666-0.83,0.841-1.321
		c0.179-0.502,0.286-1.021,0.408-1.489c0.146-0.54,0.368-0.964,0.438-1.452c0.091-0.622,1.023-0.475,0.994-1
		c-0.065-1.201-0.896-2.524-1.614-3.096C122.274,461.632,121.255,461.493,120.06,461.684z"/>
	<path class="st0" d="M411.516,416.051c-2.016,22.693,10.141,45.428,40.309,67.528c92.032,67.426,198.847,35.974,180.635-24.267
		c-6.74-22.294-18.507-34.869-30.658-41.87c-47.327,143.597,105.396,119.396,133.37,51.519c13.725-0.379,28.573-7.253,40-25.752
		c34.203-55.373,20.393-99.511-33.787-112.981c36.215-50.053,23.298-156.989-95.797-164.85
		C541.99,158.54,494.406,243.699,510.8,300.772c-3.892,14.439-13.404,19.262-13.404,19.262
		C446.9,350.594,414.428,383.279,411.516,416.051z"/>
	<path class="st2" d="M579.565,365.661c15.848,4.943,35.605,8.93,58.297,9.943c11.335,0.401,23.415,0.297,35.987-1.553
		c12.547-1.781,25.661-4.845,38.54-10.569c12.777-5.671,25.51-14.431,34.868-26.765c9.099-12.25,15.199-26.607,18.199-41.661
		c1.597-7.517,2.347-15.238,2.376-22.993c0.114-3.881-0.22-7.765-0.448-11.656c-0.5-3.871-0.863-7.769-1.72-11.605
		c-0.646-3.871-1.789-7.648-2.799-11.454c-1.308-3.722-2.451-7.511-4.129-11.107c-1.461-3.685-3.39-7.159-5.229-10.674
		c-0.984-1.724-2.085-3.383-3.127-5.072c-1.013-1.711-2.152-3.336-3.366-4.91c-4.564-6.522-10.158-12.233-16.008-17.516
		c-3.054-2.495-6.028-5.101-9.323-7.23c-1.623-1.095-3.194-2.281-4.863-3.29l-5.047-2.935c-13.55-7.68-28.24-12.394-42.76-15.142
		c-3.645-0.582-7.275-1.16-10.888-1.737c-3.62-0.349-7.226-0.698-10.81-1.045c-3.598-0.271-7.201-0.325-10.768-0.489
		c-3.581,0.022-7.148,0.062-10.687,0.173c-14.172,0.691-27.996,3.191-40.818,7.433c-25.733,8.434-46.782,24.35-60.429,41.997
		c-13.882,17.622-20.994,36.387-23.844,51.835c-1.231,6.917-2.293,14.743-1.717,25.926c0.188,2.789,0.46,5.796,0.987,9.019
		c0.292,1.612,0.546,3.289,0.915,5.02c0.211,0.86,0.428,1.736,0.649,2.63l0.081,0.331v-0.011l-0.003-0.024v-0.002
		c-0.211,0.557-0.432,1.134-0.66,1.734c-0.567,1.29-1.181,2.612-1.977,3.841c-0.766,1.254-1.665,2.461-2.694,3.551
		c-0.516,0.541-1.059,1.066-1.614,1.528l-0.827,0.648l-0.493,0.354l-0.29,0.16l-0.289,0.161
		c-13.66,8.348-29.093,18.405-44.892,31.767c-7.863,6.692-15.774,14.236-23.117,23.092c-7.334,8.811-14.112,19.14-18.458,31.379
		c-4.296,12.17-5.35,26.727-1.198,40.044c2.018,6.625,5.015,12.876,8.634,18.637c3.746,5.635,7.915,10.964,12.566,15.713
		c9.193,9.678,19.812,17.472,30.661,24.652c10.946,7.146,22.62,13.337,34.8,18.334c24.314,10.036,50.781,15.238,76.725,13.691
		c12.95-0.801,25.795-3.488,37.741-8.59c5.967-2.571,11.642-5.938,16.839-9.978c5.21-4.028,9.726-9.168,13.167-14.934
		c3.402-5.774,5.723-12.329,6.236-18.88c0.535-6.5,0.012-12.953-1.711-18.706c-0.321-1.522-0.811-2.829-1.302-4.124
		c-0.481-1.307-0.961-2.606-1.439-3.901c-0.99-2.575-1.775-5.174-3.155-7.576c-1.256-2.432-2.496-4.835-3.723-7.207
		c-1.477-2.261-3.029-4.45-4.529-6.619c-6.352-8.473-14.299-15.227-22.685-19.665c-8.376-4.508-16.981-6.726-24.792-7.662
		c-1.763-0.214-3.98-0.19-6.271-0.083c-2.305,0.281-4.685,0.609-6.801,1.37c-4.236,1.374-7.349,3.847-6.815,6.516
		c0.464,2.345,3.601,3.754,7.256,4.971c1.824,0.535,3.792,1.178,5.639,1.54c1.841,0.537,3.587,0.826,4.992,1.05
		c6.256,0.878,12.953,2.757,19.267,6.306c6.331,3.501,12.226,8.643,17.137,15.316c5.11,6.471,8.463,15.286,11.225,24.048
		c2.23,8.401,1.702,17.221-2.993,24.725c-4.444,7.63-12.722,13.723-22.308,17.864c-9.681,4.066-20.686,6.409-32.044,7.047
		c-22.785,1.269-46.824-3.409-69.003-12.654c-11.121-4.59-21.828-10.293-31.9-16.896c-10.047-6.67-19.696-13.824-27.525-22.129
		c-4.003-4.086-7.395-8.504-10.417-13.009c-2.857-4.579-5.104-9.34-6.587-14.193c-2.983-9.722-2.279-19.81,0.97-29.247
		c3.353-9.439,8.924-18.182,15.394-25.919c6.447-7.779,13.654-14.693,20.948-20.902c14.618-12.391,29.554-22.167,42.467-30.06
		c1.201-0.69,1.639-1.016,2.37-1.529c0.646-0.467,1.25-0.944,1.824-1.425c1.15-0.962,2.182-1.959,3.142-2.975
		c1.916-2.032,3.493-4.164,4.815-6.308c1.354-2.133,2.383-4.298,3.288-6.401l0.605-1.58l0.292-0.78l0.149-0.396l0.191-0.629
		c0.26-0.852,0.519-1.696,0.773-2.533l0.383-1.248c0.104-0.415,0.347-0.825,0.142-1.243c-0.578-2.323-1.133-4.557-1.668-6.712
		c-0.292-1.388-0.487-2.748-0.73-4.043c-0.429-2.603-0.649-5.059-0.808-7.343c-0.472-9.18,0.399-15.761,1.435-21.584
		c2.392-13.017,8.479-29.098,20.399-44.207c11.732-15.14,29.729-28.791,52.168-36.161c11.193-3.694,23.379-5.922,36.076-6.546
		c3.179-0.096,6.389-0.132,9.612-0.159c3.234,0.159,6.486,0.194,9.755,0.443c3.269,0.314,6.554,0.631,9.855,0.946
		c3.257,0.518,6.532,1.039,9.817,1.563c13.037,2.456,25.906,6.625,37.462,13.179l4.311,2.49c1.422,0.853,2.733,1.866,4.113,2.786
		c2.808,1.785,5.275,3.992,7.856,6.069c4.892,4.433,9.589,9.157,13.378,14.596c15.781,21.364,20.857,50.084,15.643,75.72
		c-2.49,12.849-7.68,24.911-14.91,34.758c-7.275,9.649-17.273,16.736-28.167,21.675c-10.912,4.936-22.552,7.796-33.891,9.495
		c-11.359,1.781-22.536,1.981-33.051,1.724c-21.091-0.708-39.699-4.174-54.495-8.469c-5.941-1.486-18.193-3.192-20.111,1.24
		C561.727,357.013,573.144,363.808,579.565,365.661z"/>
	<path class="st2" d="M638.621,478.495c8.813,2.937,17.4,3.794,25.243,2.748c7.852-1.031,14.832-3.887,20.834-7.829
		c11.966-8.054,20.73-19.743,27.499-36.707c6.785-17.027,8.579-30.176,9.375-43.153c0.283-6.512,0.104-13.04-0.704-20.142
		c-0.863-7.092-2.302-14.81-5.704-23.467c-0.413-1.156-1.594-2.695-3.292-3.598c-1.658-0.922-3.688-1.188-5.872-0.075
		c-2.184,1.114-3.314,2.844-3.846,4.428c-0.49,1.569-0.451,3.1-0.185,4.075c2.263,7.13,3.13,13.865,3.535,20.066
		c0.374,6.224,0.299,11.998-0.11,17.77c-1.007,11.476-2.632,23.268-8.242,38.05c-6.077,14.528-13.229,23.405-21.494,29.301
		c-8.304,5.696-18.403,8.722-33.005,5.073c-1.87-0.595-6.323,0.02-8.252,4.535C632.476,474.085,636.281,477.607,638.621,478.495z"/>
	<path class="st2" d="M694.771,458.189c4.337,5.712,9.444,9.328,14.52,12.149c5.119,2.752,10.339,4.523,15.521,5.543
		c10.362,2.018,20.678,0.793,29.745-3.15c9.047-3.982,16.858-10.407,23.023-18.597c1.622-2.014,2.993-4.209,4.463-6.434
		c1.251-2.191,2.533-4.439,3.854-6.755c2.759-4.536,4.989-9.822,7.554-15.351c4.794-11.311,7.408-21.968,8.265-32.101
		c0.981-10.129-0.63-19.922-4.074-28.868c-3.474-8.951-9.216-17.209-17.186-23.635c-7.888-6.513-17.626-11.609-29.213-15.184
		c-3.146-0.84-9.719-0.595-10.79,4.196c-1.068,4.79,3.746,8.322,6.408,9.156c9.917,3.624,17.605,8.246,23.477,13.484
		c5.963,5.189,9.777,11.25,12.18,17.801c4.911,13.086,3.911,28.879-4.013,48.859c-2.373,4.881-4.34,9.526-6.908,13.646
		c-1.204,2.086-2.37,4.112-3.509,6.085c-1.198,1.766-2.295,3.552-3.558,5.098c-4.837,6.426-10.405,10.896-16.523,13.779
		c-6.139,2.808-13.047,3.904-20.53,2.774c-3.726-0.581-7.593-1.699-11.381-3.511c-3.74-1.819-7.538-4.372-10.235-7.612
		c-0.779-0.852-1.951-1.815-3.522-2.537c-1.548-0.676-3.402-1.457-5.879-1.125c-2.383,0.305-3.879,2.51-3.935,5.256
		C692.434,453.836,693.589,456.735,694.771,458.189z"/>
	<path class="st2" d="M632.772,427.374c1.135-7.173,1.544-14.022,1.697-17.697c0.198-3.67,0.419-10.549-0.104-17.841
		c-0.247-4.675-2.912-13.704-7.811-13.164c-4.856,0.536-6.071,9.196-6.236,13.537c-0.126,6.837-0.305,13.31-0.49,16.785
		c-0.143,3.474-0.561,9.952-1.022,16.824c-0.228,4.39,0.373,13.136,5.136,14.024C628.827,440.752,632.122,431.954,632.772,427.374z"
		/>
	<path class="st2" d="M613.725,521.622c6.934,4.242,13.634,6.432,19.799,7.717c6.19,1.263,11.933,1.627,17.62,1.506
		c11.346-0.398,22.643-2.516,36.887-8.409c14.251-5.875,23.718-12.282,32.083-19.799c4.165-3.785,8.06-7.909,11.716-12.932
		c3.645-5.007,7.161-10.87,9.917-18.262c0.785-1.991,0.084-6.577-4.61-7.899c-4.755-1.349-7.674,1.123-8.398,2.582
		c-2.662,5.674-5.837,10.186-9.08,14.095c-3.243,3.918-6.658,7.193-10.267,10.263c-7.236,6.1-15.326,11.626-27.548,16.961
		c-12.42,4.841-22.023,6.578-31.362,7.207c-4.679,0.248-9.331,0.176-14.258-0.505c-4.916-0.698-10.132-2.008-15.521-4.726
		c-1.438-0.619-5.119-0.829-8.174,3.084C609.528,516.33,611.788,520.553,613.725,521.622z"/>
</g>
</svg>
